<?xml version="1.0" encoding="utf-8"?>
<!-- Generator: Adobe Illustrator 25.0.0, SVG Export Plug-In . SVG Version: 6.00 Build 0)  -->
<svg version="1.1" xmlns="http://www.w3.org/2000/svg" xmlns:xlink="http://www.w3.org/1999/xlink" x="0px" y="0px"
	 viewBox="0 0 498.5 461.1" style="enable-background:new 0 0 498.5 461.1;" xml:space="preserve">
<style type="text/css">
	.st0{display:none;}
	.st1{display:inline;}
	.st2{clip-path:url(#SVGID_2_);}
	.st3{fill:#45487C;}
	.st4{fill:#A54B43;}
	.st5{fill:#DCCB6F;}
	.st6{fill:#E17B4C;}
	.st7{fill:#61A67D;}
	.st8{fill:#FFFB7A;}
	.st9{fill:#6FB4B6;}
	.st10{fill:#BFBECC;}
	.st11{fill:#516B42;}
	.st12{fill:#383637;}
	.st13{fill:#967A55;}
	.st14{fill:#ED5A3C;}
	.st15{fill:#FF834D;}
	.st16{fill:#CDBE87;}
	.st17{clip-path:url(#SVGID_4_);}
	.st18{fill:#221C40;}
	.st19{fill:#F2B47C;}
	.st20{fill:#FCCB90;}
	.st21{fill:#EB4242;}
	.st22{fill:#FBFAFF;}
	.st23{fill:#394CAD;}
	.st24{fill:#FFFFF5;}
	.st25{fill:none;stroke:#000000;stroke-width:0.9118;stroke-linecap:round;stroke-miterlimit:10;}
	.st26{fill:#192E84;}
	.st27{opacity:0.1;fill:#6666D8;}
</style>
<g id="Layer_2_1_" class="st0">
	<g class="st1">
		<defs>
			<polygon id="SVGID_1_" points="9.7,459.1 274.5,0 498.5,70.8 490.8,461.1 			"/>
		</defs>
		<clipPath id="SVGID_2_">
			<use xlink:href="#SVGID_1_"  style="overflow:visible;"/>
		</clipPath>
		<g class="st2">
			<g id="Layer_1">
				<path class="st3" d="M277.4,138c0.3-0.1,1,0,1,0c0.9,0.7-0.2,1.7,0,2.7c1.2,5.8,3,11.4,4,17.3c0.6,3.5,1.3,3.9,4.3,1.9
					c9.5-6.1,20.1-9.6,31.1-11.7c3.6-0.7,7.3-1,11-1c7.3,0,14.6-0.4,21.8,1.1c5.6,1.1,10.1,4.4,15,6.9c10.2,5.3,16.9,14.3,24.2,22.6
					c2.2,2.5,2.3,2.5,5.4,1.4c3-1.1,5.7-2.8,8.6-3.8c1.1,1.7,2.4,4.1,3.9,7c3.1,7.1,5.1,13.3,5.7,18.6c1.3,11.3,0.5,26.5-2.4,45.4
					c-0.3,1.1-1.3,1.4-2.1,1.6c-2,0.7-3.3,2-4.1,3.9c-2,4.5-4.8,8.6-6.3,13.4c-0.2,0.8-0.7,1.4-1.3,1.9c-4.6,2.8-7.3,7.4-10.3,11.6
					c-6,8.4-11.6,17.1-18.3,25.1c-6.9,8.3-15.3,13.5-25.5,16.7c-7.7,2.5-15.5,2.8-23.3,3.8c-4.8,0.6-9.6,1.1-14.4,1
					c-3.2-0.1-6.3,0.8-9.1,2.3c-3,1.6-4.8,4.1-4.8,7.6c0,8.4,3,15.5,8.4,21.8c1.4,1.7,3.5,2.4,5.4,3.4c0.1,0.1,0.3,0.1,0.4,0.2
					c-0.1-0.2-0.3-0.2-0.5-0.3c-6-5.2-9.1-11.8-8.9-19.8c0.1-5.7,3.6-11.9,11.8-12.6c7.8-0.7,15.7-1.4,23.5-2.4
					c5.2-0.7,10.1-3,15.2-4.5c9.8-3.1,16.8-9.7,23.4-17.1c5.2-5.8,10-12,14.4-18.5c0.4-0.6,0.8-1.2,1.3-1.7c1.1-1,1.8-0.8,2.2,0.6
					c0.3,1.2,0.1,2.4,0.2,3.5c0.5-2.4,0.8-4.9,1-7.4c0.4-4.1,3-7,5.7-9.8c0.3-0.3,0.9-1.2,1.4-0.9c0.8,1.2,0.3,3.3-0.1,4.4
					c-1,2.7-0.9,5.4,0.2,8c0.5,1.2,2.8,1.2-0.1,2.6c-0.7,1.1-3.3,5.9-4,7c0,3.9-1.8,0.8-3.3,1.2c-1.7,0.4-3,1.2-4.1,2.5
					c-3,3.7-6.1,7.4-9,11.2c-0.2,0.1-0.3,0.3-0.5,0.4c-0.1,0.1-0.2,0.1-0.2,0.2c-0.2,0.2-0.5,0.5-0.7,0.7c-0.2,0.1-0.4,0.3-0.6,0.4
					c-4.5,3.6-8.8,7.4-13.3,11c-2.2,1.8-4.5,3.5-6.8,5.2c-2.4,1.8-5.3,2.4-8.1,3.1c-5,1.2-10,2.5-15,3.5c-4.2,0.8-8.5,0.7-12.7,1.4
					c-2,0.4-3.8,0.9-5.6,1.9c-5.2,3.2-6.4,9.4-3.6,14.9c2.3,4.6,6,7.3,10.2,9.8c3,1.8,5.9,3.6,8.8,5.5c-1.1,1-2.1,2-3.2,3
					c-1.2,0.7-2.3,0-3.3-0.6c-1.8-1.1-3.4-0.9-5.2,0.1c-2,1.1-4,2.3-6.2,3.1c-1.1,0.4-2.1,1.3-3.4,0.6c-3-2.5-6.1-4.8-9-7.3
					c-2.4-2-4.1-4.6-5.6-7.3c-3.3-6.2-6.5-12.4-7.7-19.5c-2-12.1,6.4-18.5,16.2-19.3c4-0.3,7.9,0.4,11.8,0.5
					c4.6,0.2,9.1-0.2,13.7-0.6c13.4-1.2,25-6.6,34.8-15.6c4.2-3.9,7.1-8.9,10-13.8c7.9-13.3,13.3-27.6,15.7-42.9
					c0.6-3.5,0.4-7.1,0.2-10.6c-0.4-6.9-0.8-13.8-1.6-20.6c-0.2-1.8-0.3-4.7-0.1-6.5c0.5-5.9,1.8-11.7,0.9-17.7
					c-1.7-11.6-9.1-14.7-18.6-12.3c-3.3,0.8-6.5,2-9.7,3.1c-5.5,2-11.1,1.8-16.6,1.2c-19.5-2.2-38.1,0.4-55.9,8.9
					c-11.1,5.3-18.4,14.1-23.7,24.9c-4.1,8.4-5.6,17.3-6,26.6c-0.4,8-1,15.9-0.9,23.9c0,1.4-0.3,2.7-0.5,4c-0.9,4.3-3.2,6.4-7.2,6.4
					c-4.2,0-6.7-2-7.4-6.4c-0.7-4-0.9-8.2-0.9-12.3c0-8.9-0.6-17.8-1.9-26.7c-1.1-8-4.4-15.3-8.6-22.1
					c-7.7-12.7-19.6-19.3-33.2-23.5c-11.1-3.4-22.5-4.8-34.1-4.3c-3.6,0.1-7.1,0.6-10.6,0.9c-7.4,0.7-14.3-1-21-3.6
					c-3.1-1.2-6.2-1.7-9.5-1.7c-5.5,0-9,2.8-11.2,7.5c-1.9,4-1.7,8.3-1.4,12.6c0.2,2.4,0.3,4.7,0.8,7.1c1.1,5.6,0.2,11.2-0.1,16.8
					c-0.5,8.3-1.8,16.6-0.7,25c0.7,5.8,2.3,11.3,4,16.8c4.1,13.1,10.3,25.1,18.6,36c3,3.9,6.9,6.8,10.8,9.5
					c8.3,5.6,17.5,8.5,27.4,9.6c6.8,0.7,13.5,0.7,20.3,0c4.9-0.5,9.6,0.2,13.9,2.8c4.9,2.9,7.9,8.5,7.1,14.2
					c-1.7,12.3-7,22.8-16.1,31.3c-2,1.8-4.4,3.1-6.3,5c-1.4,0.8-2.6-0.7-3.8-0.8c-1.1-0.1-2.2-0.6-3-1.3c-3.1-2.6-5.7-3.4-8.5-1.3
					c-0.7,0.5-1.5,1.2-2.5,0.5c-1.1-1.1-2.2-2.2-3.4-3.3c2.1-2.4,5.5-2.8,7.7-5.2c0.4-0.4,0.9-0.7,1.4-0.9c5.3-2,8-6.2,10.4-10.7
					c2.2-4.2,0.7-9.9-3.2-12.7c-2.6-1.9-5.6-2.7-8.7-2.9c-9.6-0.4-18.7-3-27.9-5.2c-3.5-0.9-6.4-2.7-9.1-4.8
					c-6.2-4.7-12.3-9.6-18.2-14.8c-0.2-0.1-0.4-0.3-0.6-0.4c-0.3-0.3-0.6-0.6-1-1c-2.9-3.4-5.7-6.9-8.6-10.4c-1.4-1.7-3-2.7-5.1-3.2
					c-0.8-0.2-1.8-0.1-2.1-1.2c-1.5-2.3-3-4.5-4.4-6.8c-0.6-0.9-0.2-1.9,0.1-2.7c0.9-2.5,0.8-5,0-7.6c-0.4-1.4-1.1-2.8-0.4-4.3
					c1.1-0.6,1.5,0.4,2.1,0.9c1.8,1.9,3.2,4.1,4.6,6.3c1.1,1.8,0.9,3.9,0.6,6c-0.2,1.4,0.1,2.8,0.6,4.1c0.2,0.4,0.1,0.8,0.1,1.1
					c0.1-0.2,0-0.5,0-0.7c0-1.3,0.1-2.5,0.6-3.7c0.5-1.2,1.3-1.4,2.2-0.4c1.1,1.2,2,2.4,2.9,3.7c6.6,9.9,14.6,18.6,23.5,26.5
					c4.5,4,10,5.6,15.3,7.8c3.4,1.4,7.1,2.2,10.6,3.4c2.8,0.9,5.6,0.9,8.4,1c6.6,0.3,13.2,1.4,19.8,2.1c4.6,0.5,7.3,3.6,8.7,7.7
					c2.6,7.7-1.4,19.5-8.2,24.2c3.2-1.1,5.4-3.2,7.3-5.8c4.1-5.7,6.6-12,6.6-19.1c0-3.4-1.7-5.9-4.5-7.6c-2.6-1.5-5.5-2.5-8.6-2.4
					c-9.8,0.1-19.4-1.4-29-2.5c-8.4-1-16.4-4.1-23.8-8.4c-4.9-2.8-8.4-7.4-12.1-11.5c-7.1-7.9-12.6-17-18.8-25.5
					c-2.8-3.8-5.3-7.9-9.7-10.2c-0.5-0.3-0.8-0.8-0.9-1.3c-1.5-5.6-4.9-10.2-7.4-15.3c-0.6-1.1-1.3-1.9-2.5-2.4
					c-0.8-0.4-1.8-0.7-2.1-1.8c-1.3-8.3-2.2-16.4-2.9-24.4c0-8.7,0.7-17,2-25c2-9,1.5-8.9,4-15c0.7-2,1.7-4,3-6
					c1.2-0.9,2.9,0,3.9,0.6c2,1.2,4.1,2.1,6.2,3c1.5,0.6,2.7,0.4,3.7-0.9c4-5.2,8.8-9.7,13.1-14.6c4.2-4.7,9.8-7.3,15.1-10.6
					c7.9-4.9,16.5-6.2,25.6-6.4c12.3-0.2,24.2,1.4,35.8,5.6c4.1,1.5,7.9,3.5,11.8,5.6c1.1,0.6,2.2,1.3,3.3,1.9
					c2.7,1.5,3.3,1.1,3.9-1.9c1.2-6.4,3.2-12.5,4.8-18.8c0.2-0.7,0.2-1.2,0.9-1.5l2,1l2,1c-1,3.7-1.8,9.9-2.6,13.6
					c-1.5,6.9,0.4,13.3,3.6,19.4c1.1,2,2,4.1,3.2,6.1c0.4,0.7,1.2,1.6,0.5,2.4c-0.8,0.9-1.8,0.2-2.6-0.2c-4.1-2.1-8.4-3.6-12.9-4.5
					c-1.7-0.3-4-1.2-4.9,0.4c-1.1,2,1.7,3.7,2.8,4.9c2.6,2.9,5.6,5.4,8.8,7.6c7.7,5.3,14.7,11.2,19.9,18.9c2,3,3.1,6.2,3.6,9.7
					c0.7,5,0.7,10.1,1.1,15.1c0.6,9.4,0.8,18.8,1,28.2c0,0.8,0.1,1.6,0.3,2.3c1.7,6.6,5.1,7.9,7.4,3.9c1.6-2.7,2-5.8,2.1-8.9
					c0.1-2.8,0-5.5,0-8.3c0.3-10.8,0.7-21.6,1.8-32.3c0.6-5.7,3.4-10.2,7-14.2c6.4-7.1,13.6-15,21.8-20.1c1.7-1.1,3-1.2,4-3
					c0.6-1.1,3.3-2,2.4-3.8c-0.8-1.6-2.6-0.9-4.1-0.7c-4.5,0.9-8.9,2.2-13.1,4.1c-0.9,0.4-1.6,1-2.7,0.7c-0.2-0.1-0.4-0.3-0.5-0.5
					c-0.2-1.1,0.3-2,0.8-2.9c1.8-3.1,3-6.4,4.6-9.6c2.2-4.4,2.7-9,1.9-13.8c-0.7-3.9-1.3-7.9-2.2-11.8c-0.3-1.4-0.1-3.7-0.1-3.7
					L277.4,138L277.4,138L277.4,138z"/>
				<path class="st4" d="M293.1,389.9c-4.6,2.9-9.1,6-13.8,8.8c-10.4,6.1-21,12-31.5,17.8c-0.7,0.4-2,0.1-2.7-0.3
					c-14.9-7.7-29.4-15.9-43.2-25.4c-0.4-0.3-0.9-0.6-1.4-0.8c-0.7-0.4-1-1.1-1-1.8c-0.1-3-1.6-5.2-3.5-7.2c-0.7-0.7-1.4-1.5-1-2.7
					c0.2-0.2,0.5-0.5,0.8-0.5c3.9,0,6.5-2.5,9.4-4.6c10-7.6,15.9-17.9,19.6-29.7c2.1-6.7,3.7-13.5,4.3-20.6c0.1-1.4,0.8-2.4,1.7-3.3
					c4.1-4.4,8.9-8,13.5-11.9c1.6-1.4,3.1-1.2,4.7,0.1c4.2,3.6,8.6,7,12.5,10.9c1.5,1.5,2.3,3.3,2.6,5.4c1.6,13.3,5.2,26,12.7,37.3
					c4.1,6.3,9.9,11.2,16.3,15.2c1.6,1,3.6,0.5,5.1,1.5c0.6,1.3-0.1,2.2-0.9,2.9c-2.2,1.9-3.1,4.2-3.3,7
					C293.9,388.8,294,389.6,293.1,389.9L293.1,389.9L293.1,389.9z"/>
				<path class="st3" d="M223.6,141.6c0.9,0.3,1.8,0.5,2.7,0.9c6.2,2.9,12.4,5.8,18.6,8.7c1.3,0.6,2.4,0.6,3.8,0
					c6.1-2.9,8.6-4.4,14.8-7.2l6-3c1.5,1.4,1.9,4,2.1,5.8c0.4,4.7,1.3,9.4,1.3,14.1c0,3.9-1,7.3-2.9,10.6c-2.1,3.8-4,7.7-5.9,11.6
					c-0.3,0.5-0.8,1.2-0.4,1.7c0.5,0.7,1.3,0.2,2-0.1c4.4-1.8,8.7-3.7,13.3-5.1c0.9-0.3,1.8-0.6,2.7-0.8c0.7-0.1,1.5-0.3,1.9,0.4
					c0.4,0.7-0.1,1.4-0.6,1.9c-2.1,2.2-4.6,4.1-6.9,6.1c-5,4.3-10.5,7.8-15.1,12.6c-6.9,7.1-10.1,15.5-10.5,25.4
					c-0.4,10.9-0.4,21.8-0.4,32.7c0,1.9-0.4,3.8-1,5.6c-0.4,1-0.9,2.2-2.2,2.2c-1.4,0-1.9-1.2-2.3-2.3c-0.5-1.4-0.6-2.9-0.6-4.4
					c0-5.7,0.1-11.4,0-17.1c-0.2-7.6-0.7-15.1-1.3-22.7c-0.6-6.8-3.9-12.4-8.2-17.5c-4.7-5.5-10.7-9.3-16.1-13.9
					c-2.2-1.9-4.4-3.8-6.7-5.7c-0.6-0.4-1.1-1-1.4-1.6c-0.6-1.2-0.2-1.8,1.1-1.8c0.9,0,1.7,0.3,2.5,0.6c3.8,1.2,7.4,2.6,11.1,4.2
					c1.2,0.5,2.5,1.1,3.7,1.5c1.1,0.3,1.6,0,1-1.1c-0.5-1-0.9-2-1.4-3c-2-3.7-3.7-7.5-5.7-11.2c-2.3-4.1-2-8.6-1.7-13
					c0.3-3.9,0.8-7.9,1.6-11.7C222.5,143.9,222.6,142.6,223.6,141.6L223.6,141.6L223.6,141.6z"/>
				<path class="st5" d="M397.2,266.8c2.1-4.6,4.5-9.2,6.4-13.9c1.4-3.7,4.1-5.3,7.5-6.5c11.1,5.3,22.3,10.4,33.3,16
					c6.1,3.1,11.8,7,17.6,10.6c10.2,6.4,20.3,12.8,30.4,19.2c0.4,0.3,0.7,0.7,1.1,1.1c-0.5,0-0.9,0.1-1.4,0.1
					c-8.6-0.9-17.2-1.7-25.9-2.6c-7-0.7-13.9-1.4-20.9-2c-11.1-1-22.1-1.9-33.2-2.8c-5.1-0.4-10.5-0.6-15.6-0.9
					c-0.1-0.2-0.9-1.8-1-2c-2-3.6-1.1-6,0.4-9.9c0.3-0.8,0.2-1.7,0.4-2.5c0-0.1,0-0.2-0.1-0.3c0-0.2,0-0.5,0-0.7
					C396.4,268.6,396.4,267.5,397.2,266.8L397.2,266.8L397.2,266.8z"/>
				<path class="st6" d="M375.4,306.6c2.7-3.4,5.6-6.7,8-10.3c2.2-3.3,5.5-3.6,8.9-4.3c11.7,9.4,23.6,18.2,35,28
					c6.5,5.6,12.2,12.1,18.3,18.2c4.9,4.9,9.8,9.9,14.6,14.9c0.4,0.4,0.6,0.9,1,1.3c-0.5-0.1-1.1-0.1-1.6-0.3
					c-26.9-8.7-53.7-17.5-80.6-26.2c-3.5-1.1-6.9-2.2-10.4-3.4c-1.4-2.8-1.1-5.6,0.1-8.3c0.4-1,1.1-1.9,1.7-2.8
					c0.1-0.2,0.3-0.4,0.4-0.6c0.3-0.4,0.5-0.7,0.8-1.1c0.9-1.2,1.4-2.7,2.7-3.5h0c0.3-0.3,0.2-0.7,0.5-1l0,0
					C375,306.9,375.2,306.8,375.4,306.6L375.4,306.6L375.4,306.6z"/>
				<path class="st5" d="M82.3,246.4c3.3,1.1,5.3,3.4,6.7,6.5c2,4.6,4.2,9.1,6.3,13.7c0.7,1,1.3,2.1,0.7,3.4
					c0.2,1.1,0.3,2.4,0.7,3.4c1.6,3.9,1.1,7.7-0.5,11.5c-5,0.3-10.1,0.6-15.1,1c-7.3,0.5-14.6,1.1-21.9,1.8
					c-9.1,0.8-18.2,1.8-27.3,2.6c-7.1,0.7-14.3,1.4-21.4,2.1c-3.1,0.3-6.1,0.6-9.2,0.9c-0.4,0-0.9-0.1-1.3-0.1
					c0.3-0.3,0.6-0.7,1-0.9c10.1-6.4,20.4-12.4,30.2-19.1C47.2,262.3,65.1,255,82.3,246.4L82.3,246.4L82.3,246.4z"/>
				<path class="st6" d="M100.6,291.8c3.8,0.5,6.8,2.1,9,5.4c2.2,3.2,4.8,6.1,7.2,9.1c0.5,0.1,0.4,0.7,0.7,1l0,0
					c1.7,1.5,2.6,3.5,3.9,5.3c0.6,1.4,1.7,2.4,2.3,3.8c1.3,2.6,1.8,5.4,0.8,8.2c-9.6,3.2-19.1,6.5-28.7,9.6
					c-20.6,6.7-41.3,13.3-61.9,20c-0.5,0.2-1,0.2-1.6,0.2c0.3-0.4,0.5-0.9,0.9-1.3c10.6-10.8,21.1-21.8,32.1-32.2
					c7.1-6.7,15.1-12.5,22.6-18.7C92.1,298.6,96.4,295.2,100.6,291.8L100.6,291.8L100.6,291.8z"/>
				<path class="st7" d="M363,331.3c5.5,7.4,10.8,15,16.5,22.2c11.4,14.2,19.2,30.6,28.2,46.2c1.1,2,2.3,4,3.4,6
					c0.2,0.4,0.3,1,0.5,1.5c-0.5-0.2-1-0.2-1.5-0.5c-7-4.2-14.1-8.4-21.1-12.6c-18.1-10.9-36.3-21.8-54.4-32.6
					c-0.5-0.3-1-0.5-1.5-0.7c-0.5-2.9,0.1-5.7,1.8-8c2.8-3.7,5.4-7.7,8.8-10.8c4.8-4.4,9.6-9.2,16.4-10.7
					C361,330.9,362.1,330.4,363,331.3L363,331.3L363,331.3z"/>
				<path class="st7" d="M81.9,407.1c0.3-0.7,0.5-1.5,0.9-2.1c6.8-12.1,13.4-24.4,20.5-36.3c3.3-5.6,7.5-10.7,11.4-16
					c5.2-7.1,10.5-14.2,15.7-21.3c2.7-1,5,0.2,7,1.6c5.9,4.1,11.8,8.1,16.1,14c1.4,1.8,3,3.5,4.5,5.2c1.9,2.2,2.1,4.8,2.6,7.5
					c0.1,0.4-0.1,0.8-0.4,1.1c-25.6,15.4-51.2,30.7-76.7,46C83,406.8,82.5,407,81.9,407.1L81.9,407.1L81.9,407.1L81.9,407.1z"/>
				<path class="st8" d="M314.6,127.6c5-14.9,10.2-29.7,15.1-44.6c5.5-16.6,10.9-33.3,16.4-49.9c0.1-0.4,0.4-0.8,0.6-1.2
					c0.1,0.4,0.3,0.8,0.3,1.2c0.3,3,0.6,6,0.8,8.9c0.5,9.3,1.1,18.6,1.5,27.9c0.4,8.9,0.7,17.8,1,26.7c0.3,10,0.6,20,0.9,30
					c0,1.6,0.3,3.1,0.4,4.7c-0.1,4.4-1.7,6.2-5.8,6.8c-3.3,0.4-6.5,1.1-9.8,1.6c-1.9,0.3-3.6,0.2-5.3-0.4c-3.4-1.1-6.8-2.1-10.2-3.1
					C315.5,134.9,314.1,132.9,314.6,127.6L314.6,127.6L314.6,127.6z"/>
				<path class="st8" d="M142,131.3c0.2-4.4,0.4-8.8,0.6-13.2c0.2-8.5,0.3-17,0.6-25.6c0.4-10.9,0.8-21.9,1.4-32.8
					c0.5-8.8,1.2-17.6,1.8-26.4c0-0.5,0.2-0.9,0.3-1.4c0.2,0.4,0.5,0.8,0.6,1.2c2.5,7.7,5,15.5,7.6,23.2
					c7.8,23.4,15.7,46.8,23.6,70.2c0.1,0.4,0.2,0.8,0.3,1.2c0.9,4.4-0.8,7.2-4.8,8.4c-4,1.2-8,2.2-12,3.5c-3.2,1.1-6.2-0.3-9.3-0.6
					c-1.9-0.2-3.7-0.7-5.6-1C143.2,137.3,141.9,135.4,142,131.3L142,131.3L142,131.3z"/>
				<path class="st9" d="M195.2,378.3c0.5,0.8,0.9,1.9,1.7,2.5c3.1,2.4,3.2,5.8,3.7,9.2c-14.4,18.5-28.8,37-43.2,55.5
					c-2.6,3.4-5.2,6.8-7.8,10.1c-0.3,0.4-0.6,0.6-1,0.9c0-0.4-0.2-0.9-0.1-1.3c1.4-8.5,3.1-17.1,4.3-25.6c2.5-18.1,9-35.1,13.6-52.6
					c0.8-2.9,1.6-5.8,2.4-8.7c0.4-0.1,0.8-0.2,1.1-0.4c3.2-2.7,6.3-2.3,9.6-0.1c2.1,1.4,4.5,2.2,6.8,3.3c2.1,0,3.5,1.2,4.9,2.5
					c0.7,0.7,1.4,1.4,2,2.1C193.6,376.6,194.7,377.2,195.2,378.3L195.2,378.3L195.2,378.3z"/>
				<path class="st9" d="M293.1,389.9c0.1-3.8,0.9-7.3,4.1-9.8c0.5-0.4,0.6-1.2,0.9-1.8c0.5-1.1,1.6-1.8,2.4-2.7
					c0.7-0.7,1.4-1.4,2.1-2.1c1.3-1.1,2.4-2.8,4.5-2.4c3.2-1.5,6.5-3,9.6-4.6c1.6-0.9,3-0.9,4.6,0c1,0.6,2.3,1,3.5,1.4
					c2.5,8.6,4.9,17.3,7.4,25.9c1.9,6.5,4.1,12.9,5.6,19.5c1.8,7.9,3,15.9,4.4,23.9c0.9,5.4,1.8,10.7,2.7,16.1c0.2,1,0.1,2,0.2,3
					l0,0c-2.9-3.6-5.8-7.2-8.7-10.8c-13.8-17.7-27.6-35.5-41.4-53.2C294.3,391.6,293.7,390.7,293.1,389.9L293.1,389.9L293.1,389.9z"
					/>
				<path class="st10" d="M223.6,141.6c-0.8,5.4-1.8,10.9-2.4,16.3c-0.6,4.9,0.3,9.5,2.9,13.9c2.4,4.1,4.4,8.4,6.5,12.6
					c0.2,0.4,0.2,1,0.3,1.5c-0.6,0-1.2,0.2-1.8,0c-5-1.9-10-3.8-15-5.7c-1-0.4-2-0.6-3-0.8c-0.3-0.1-0.7,0.1-1.1,0.1
					c0.2,0.3,0.2,0.8,0.5,1c2,1.8,3.9,3.7,6,5.4c4.5,3.6,9.2,7,13.5,10.8c5.1,4.5,9.4,9.6,11.6,16.1c1.1,3.3,1.6,6.9,1.8,10.4
					c0.5,12,0.6,24,1,36c0.1,1.8,0.5,3.6,1.2,5.2c0.6,1.5,1.8,1.4,2.3-0.1c0.6-1.8,1.2-3.8,1.2-5.7c0.2-8.2,0.1-16.4,0.3-24.6
					c0.2-5.6,0.7-11.2,1.2-16.7c0.5-5.6,3.5-10.2,6.9-14.5c4-5.1,9.1-8.9,14.1-12.9c3.7-2.9,7.1-6,10.6-9c0.4-0.3,0.6-0.9,0.9-1.3
					c-0.6,0-1.2-0.2-1.7,0c-4.9,1.8-9.8,3.6-14.7,5.3c-1.4,0.5-3,0.8-4.4,1.1c0.5-1.4,0.8-2.9,1.5-4.2c1.9-3.8,3.8-7.7,5.9-11.4
					c2.3-4,2.8-8.2,2.3-12.6c-0.6-5.5-1.8-11.4-2.6-16.9l4-2c0.2,1.8,0.9,3.9,1.2,5.6c0.7,4.9,1.6,9.8,2,14.7
					c0.2,3.3-0.6,6.5-2.2,9.5c-2.1,4-3.9,8-5.8,12.1c-0.1,0.2,0,0.3,0.2,0.2c2.1-0.9,4.2-1.9,6.3-2.5c3.5-1.1,7.1-2,10.7-2.9
					c0.4-0.1,0.8-0.2,1.2-0.1c1,0.3,2.3,0.5,2.8,1.2c0.3,0.4-0.3,2-0.9,2.6c-3.6,3.5-7.3,6.9-11.1,10.2c-5.2,4.6-10.6,8.9-15.6,13.7
					c-5.3,5-8.1,11.2-8.3,18.7c-0.3,12.6-0.9,25.2-1.5,37.8c-0.1,3.2-0.6,6.3-2.5,9c-1.9,2.7-4.4,3-6,0.1c-1.4-2.5-2.3-5.4-2.5-8.2
					c-0.6-9.3-0.6-18.6-1-27.9c-0.2-5-0.5-9.9-1.1-14.9c-0.7-6.6-4.6-11.6-9.1-15.9c-4.4-4.2-9.2-7.9-13.8-11.8
					c-3.6-3.1-7.3-6.2-10.9-9.5c-1.1-1-3-2.6-1.8-4.1c0.7-0.9,3.1-1.1,4.5-0.7c4.9,1.4,9.7,3.1,14.6,4.7c0.7,0.2,1.4,0.4,2.1,0.6
					c-0.3-0.6-0.6-1.2-0.9-1.8c-2.1-4.2-4.5-8.4-6.2-12.8c-1.6-4.3-1.7-9-0.7-13.6c0.9-4.5,2.3-8.6,3.3-13.1
					C221.6,140.6,222.4,141,223.6,141.6L223.6,141.6L223.6,141.6z"/>
				<path class="st6" d="M282.9,136.4c8.4-2.3,16.8-4.7,25.2-7c1.5-0.4,3-0.8,4.6-1.1c1.5,1,2,2.6,2.2,4.3c0.2,1.7,1.2,2.7,2.8,3.1
					c4.4,1.1,8.8,2.4,13.1,3.9c3.3,1.1,6.7,0,10-0.6c2.1-0.4,4.2-0.9,6.3-1c2.4-0.1,3.8-1.2,4.6-3.3c0.3-0.8,0.5-1.7,1.2-2.3
					c10.2,4.5,18.7,9.1,25.4,13.7c3.3,2,6.2,4.3,8.7,6.8c6.3,7.2,10.3,11.2,13.8,18.6c-0.2,0.6-0.7,0.9-1.2,1
					c-2.3,0.6-4.4,1.8-6.4,3c-2.1,1.2-2.9,1.1-4.5-0.8c-3.3-4.2-7.1-8.1-10.6-12.1c-2-2.3-4.3-4.4-6.9-6.1c-4-2.5-8.1-5-12-7.7
					c-4.5-3.1-9.5-4-14.8-4.4c-3.1-0.2-6.1-0.4-9.2-0.8c-4.5-0.6-9,0.2-13.4,1c-11,1.9-21.8,4.4-31.9,9.4c-2.3,1.1-3.1,0.7-3.9-1.7
					c-1.4-4-2.8-8.1-3.3-12.3C282.7,138.7,282.1,137.5,282.9,136.4L282.9,136.4L282.9,136.4z"/>
				<path class="st6" d="M181,128.4c7.5,2,15,4,22.6,6c2.4,0.6,4.4,0.9,6.8,1.6c0.5,0.6,0.7,1.6,0.6,2.2c-0.9,5.1-2.4,10-4.2,14.8
					c-0.5,1.3-1.4,1.7-2.6,1.2c-1.4-0.5-2.7-1.2-4.1-1.8c-12.6-5.2-25.7-8.4-39.3-8.9c-6.4-0.2-12.9,0.8-19.3,1.7
					c-2.1,0.3-3.9,1.3-5.6,2.4c-5.6,3.3-11.1,6.7-16.4,10.4c-3.8,2.7-6.5,6.6-9.7,10c-1.9,2-3.7,4.1-5.4,6.3c-1.3,1.6-2.8,2.1-4.6,1
					c-2-1.1-3.9-2.3-6.2-3c-0.4-0.1-2.1-0.8-2.2-1.4c5-8,5.1-9.6,12-16c7-7,8.8-8.9,15-12c7.3-4.7,14.8-8.3,22.3-10.9
					c0.1,0.1,0.3,0.2,0.3,0.3c0.7,4.2,3.5,5.4,7.4,5.6c2.9,0.1,5.7,1.1,8.6,1.5c2.4,0.4,4.7,0.1,7-0.7c3.7-1.4,7.5-2.4,11.3-3.2
					c1.8-0.4,2.9-1.2,3.4-3.1C179,130.9,179.5,129.3,181,128.4L181,128.4L181,128.4z"/>
				<path class="st11" d="M160.2,360.5c-0.4-4.3-2-7.9-5.2-11c-2-1.9-3.5-4.5-5.6-6.4c-3.4-3.1-7.2-5.8-10.8-8.7
					c-2.4-2-5.3-2.7-8.2-3.2c-1.9-2.3-3.9-4.6-5.8-6.9c0.1-4.5-1.3-8.4-3.9-12c1.2-0.9,1.9,0.1,2.7,0.7c5.2,4,10.4,8.3,15.6,12.2
					c4.5,3.4,9.4,6.1,15,7.2c6.6,1.3,13,3.5,19.7,3.8c0.7,0,1.4,0.2,2.1,0.4c4.1,0.9,6.3,4.3,5.1,8.3c-1.2,4.2-3.1,8.1-7.1,10.5
					c-3,1.8-5.5,4.3-8.7,5.7c-0.9,0.4-1.7,0.9-2.7,0.9C161.7,361.6,160.9,361.1,160.2,360.5L160.2,360.5L160.2,360.5z"/>
				<path class="st11" d="M363,331.3c-3.4,0.5-6.8,1.1-9.6,3.5c-2.6,2.2-5.6,3.8-8.1,6.2c-2.5,2.4-4.5,5.5-6.9,8.1
					c-3.1,3.3-4.8,7.1-5.3,11.5c-0.8,0.6-1.6,1.3-2.4,1.9c-5.1-2.1-9.6-5.2-13.8-8.6c-3.3-2.6-4.7-6.7-4.8-11c0-3.4,1.9-5.7,5.4-6.1
					c6.7-0.8,13.2-2.4,19.8-3.8c5.8-1.2,11.1-3.5,15.8-7.1c4.9-3.7,9.7-7.6,14.4-11.6c1.1-0.9,2.1-2.6,4-1.6c0,0.1,0,0.3-0.1,0.4
					c-2.9,3.3-3,7.2-2.6,11.2C366.8,326.7,364.9,329,363,331.3L363,331.3L363,331.3z"/>
				<path class="st12" d="M282.9,136.4c1.3,5.3,2.7,10.6,4,16c0.3,1.4,0.7,1.9,2.2,1.1c12.3-6.3,25.7-9.2,39.3-10.6
					c6-0.6,12.2,0.7,18.4,0.9c7,0.1,12.1,4.3,17.9,7.4c10.2,5.6,17.6,14.2,24.8,23c1.1,1.4,1.9,1.4,3.3,0.6c2.7-1.3,5.5-2.3,8.2-3.5
					c1,1.3,1.9,2.6,2.9,4c-1.5,0.9-2.9,2-4.4,2.8c-1.8,0.9-3.8,1.5-5.7,2.4c-1.5,0.7-2.5,0.2-3.5-1c-3.8-4.3-7.8-8.5-11.4-12.9
					c-2.8-3.4-6-6.2-9.8-8.4c-3.5-2.1-7.1-4.1-10.6-6.2c-5.2-3.1-11-3.9-16.8-4.1c-6.9-0.2-13.9-0.1-20.8,0.5
					c-4.8,0.5-9.5,2-14.2,3.3c-7.2,1.9-13.9,5.1-20.1,9.2c-3.5,2.3-4.1,0.8-4.7-2.1c-1.2-6.3-2-10.6-3.4-16.9c-0.2-0.7-0.9-3.3-1-4
					C279.3,137.5,281,136.9,282.9,136.4L282.9,136.4L282.9,136.4z"/>
				<path class="st12" d="M91.4,171c2.5,1.1,6.3,2.5,8.8,3.8c1.4,0.7,2.2,0.7,3.4-0.6c4.1-4.8,8-9.9,12.7-14.1
					c4.3-3.9,9.7-6.7,14.4-10.3c6.7-5.2,14.5-5.8,22.5-6.7c10.8-1.2,21.3,0.8,31.6,3.5c6.7,1.8,13.1,4.6,19.6,7
					c1.4,0.5,1.7,0.3,2.1-1.1c1.4-5.4,2.6-11.2,4.2-16.5c2.6,0.6,4,1,6,2c-1.7,6.3-3.2,12.6-4.8,18.9c-0.3,1.1-0.2,2.2-0.5,3.2
					c-0.5,2-1.2,2.4-3,1.4c-2-1-4-2.3-5.9-3.4c-9-5.2-18.8-8.3-29-9.6c-10.7-1.4-21.6-1.9-32.2,0.9c-3.8,1-7.5,3-10.9,5
					c-4.8,2.9-9.6,5.8-13.7,9.6c-5.2,4.8-9.6,10.4-14.2,15.8c-0.9,1-1.6,1.4-2.8,0.8c-2.4-1.2-4.8-2.3-7.3-3.4c-1-0.4-2.7-1-3.7-1.3
					C88.8,174.7,90.2,172.6,91.4,171L91.4,171z"/>
				<path class="st12" d="M162.4,362.2c4-2.6,8-5.3,12-7.9c3.8-2.5,5.3-6.5,6-10.6c0.6-3.4-1.4-5.9-4.9-6.2c-8.9-1-17.6-2.8-26-5.5
					c-4.1-1.4-8-4-11.6-6.6c-5.4-3.9-10.5-8.2-15.8-12.3c-0.4-0.3-1-0.4-1.5-0.6c-1.1-1.8-2.1-3.5-3.2-5.3c2.5,1.9,4.9,3.8,7.4,5.7
					c4.3,3.3,8.5,6.7,12.8,10.1c2.8,2.2,6.1,3.5,9.6,4.3c8.4,1.9,16.7,4.3,25.4,4.6c2.7,0.1,5.5,1.1,8.1,2.2
					c5.6,2.4,7.2,10.6,4.4,15.6c-2.9,5.1-7.1,8.5-12,11.2c-2.5,1.4-5.1,2.7-7.7,4.1C164.4,364,163.4,363.1,162.4,362.2L162.4,362.2
					L162.4,362.2z"/>
				<path class="st12" d="M371.5,312.8c-1.3,0.8-2.8,1.4-3.9,2.4c-6.8,5.6-13.3,11.6-21.1,15.8c-2,1.1-4.4,1.7-6.7,2.2
					c-5.4,1.3-10.9,2.5-16.3,3.6c-1.7,0.4-3.4,0.5-5.1,0.6c-4.8,0.2-6.3,3.9-5.4,7.8c1,4.2,2.8,8,7,10.2c3.4,1.8,6.6,3.9,9.9,5.9
					c0.4,0.2,0.6,0.8,0.9,1.2c-1,0.8-1.9,1.6-2.9,2.4c-1.5-0.6-3.1-1-4.5-1.9c-3.7-2.3-7.4-4.7-11-7.1c-0.3-0.2-0.7-0.4-0.9-0.7
					c-1.5-2.5-3.4-4.9-4.2-7.6c-2.4-7.8,2.4-14.5,10.5-15.3c10.7-1,21.1-3.1,31.4-6c2.4-0.7,4.7-2.2,6.7-3.8
					c5.6-4.4,11-9.1,16.6-13.6c0.6-0.5,1.4-0.6,2.1-0.9c-0.8,1.3-1.5,2.5-2.3,3.8C371.7,312,371.8,312.5,371.5,312.8L371.5,312.8
					L371.5,312.8L371.5,312.8z"/>
				<path class="st13" d="M181,128.4c-0.7,2-1.1,4.1-2.2,5.9c-0.6,1-2.2,1.7-3.5,2.1c-3.6,1.2-7.3,2.6-11.1,3.1
					c-3.5,0.6-7.1,0.4-10.7,0.2c-2.9-0.2-5.9-1.1-8.8-1.4c-2.7-0.3-4.2-2.7-4.1-6.1c0.4-0.3,0.9-0.6,1.4-0.8
					c0.7,4.8,3.7,6.4,8.2,6.7c2.6,0.1,5.2,0.9,7.9,1.3c1,0.1,2.1,0.1,3-0.2c4.8-1.3,9.5-2.8,14.3-4.1c1.3-0.4,2-1.1,2.2-2.4
					c0.3-1.7,0.7-3.4,1.1-5.1C179.5,127.9,180.2,128.1,181,128.4L181,128.4L181,128.4z"/>
				<path class="st13" d="M353,132.2c-0.1,4.3-1.6,5.8-5.8,6.2c-3,0.3-6,1-9,1.5c-3.7,0.6-7.2,0.6-10.8-1c-2.8-1.2-5.8-1.8-8.8-2.4
					c-3-0.7-3.9-1.5-4.4-4.6c-0.2-1.3-0.9-2.4-1.4-3.7l1.9-0.7c0.3,1,0.8,2,0.8,2.9c0.1,3.1,1.8,4.5,4.7,5.1
					c3.1,0.6,6.1,1.5,9.1,2.6c3,1.1,5.9,1.2,9,0.5c3.1-0.7,6.3-1.2,9.5-1.7c1.4-0.2,2-0.9,2.4-2.1c0.4-1.3,1-2.5,1.5-3.7L353,132.2
					L353,132.2L353,132.2z"/>
				<path class="st7" d="M82,407.2c-0.1,0.1-0.2,0.2-0.2,0.3C81.8,407.3,81.8,407.2,82,407.2L82,407.2L82,407.2z"/>
				<path class="st9" d="M345,456.4c0.1,0,0.1,0,0.2,0.1C345.1,456.5,345,456.4,345,456.4L345,456.4L345,456.4L345,456.4z"/>
				<path class="st12" d="M307.1,371.1c-1.5,1-2.9,2-4.4,2.9c-1.1,0.7-2,0-2.8-0.6c-6.9-4.9-12.6-10.8-16.4-18.6
					c-3.1-6.5-6-12.9-6.9-20c-1.2-9.3,3.2-17.3,11.9-21c4.1-1.8,8.4-2.5,12.9-2.6c5.7-0.1,11.4,0.5,17,0.5
					c6.5,0.1,12.9-0.8,19.3-2.1c3.9-0.8,7.5-2.5,10.9-4.5c10.2-6.2,18.1-14.5,23.5-25.3c5.1-10.2,8.4-20.9,11-31.9
					c0.3-1.3,0.4-2.7,0.4-4c-0.6-10.9-0.8-21.9-3-32.7c-0.1-0.5-0.3-1.1-0.1-1.6c1.1-4.3,0.6-8.8,1-13.2c0.3-3.2,0-6.5-1.4-9.5
					c-1.1-2.5-3-3.8-5.7-3.9c-2.9-0.2-5.6,0.1-8.4,1.1c-5,1.6-10,3.4-15.3,3.9c-4.9,0.4-9.6-0.2-14.4-0.5c-17.4-1.1-34.2,0.7-50,8.8
					c-10.3,5.3-16.8,13.9-20.9,24.5c-3.5,9.3-4.6,19-5,28.8c-0.4,7.6-0.2,15.2-0.9,22.7c-0.5,5.2-4,8.1-8.5,9.9
					c-4.4,1.8-8.5,0.8-12.2-2c-3.9-3-5.3-7.1-5.4-11.8c0-2.5,0-5,0-7.6c0-9.6-0.2-19.3-2.1-28.8c-2.3-11.6-6.9-22.2-16.1-30.2
					c-6.5-5.6-14.3-8.9-22.5-11.2c-8.2-2.3-16.6-3.4-25.3-3.4c-6.5,0-12.9,0.6-19.4,0.9c-6.5,0.2-12.7-0.9-18.8-3.3
					c-3.3-1.3-6.7-1.9-10.2-1.8c-3.2,0.1-5.2,1.6-6.3,4.5c-1.1,2.7-1.4,5.5-1.1,8.4c0.6,4.2,0.2,8.5,1.2,12.7
					c0.3,1.2,0.1,2.5-0.2,3.8c-1.4,6.4-1.6,12.8-2,19.3c-0.2,2.4-0.4,4.7-0.6,7.1c-0.7,8.8,2.1,17,4.5,25.3
					c2.4,8.1,6,15.7,10.6,22.7c7.1,10.8,16.6,19.1,29.3,22.8c8.6,2.5,17.4,3,26.3,2.3c5.8-0.4,11.7-0.8,17.5,0.3
					c4.8,0.9,9.2,2.7,12.8,6.2c4.7,4.5,6.2,10.1,5.5,16.4c-0.9,8.3-4.4,15.5-8.2,22.8c-3.4,6.6-9,11.1-14.3,15.9
					c-0.9,0.8-1.8,1.6-3.2,1.1c-1.6-1-3.1-2-4.7-3c0.7-0.8,1.3-1.8,2.1-2.4c6.7-4.4,11.5-10.5,14.9-17.6c1.8-3.8,3.4-7.6,4.4-11.7
					c1.2-5.2,1.6-10.5-2.4-15c-3.1-3.5-7-5.5-11.5-5.7c-5.3-0.2-10.7,0.5-16,0.7c-2.4,0.1-4.9,0-7.3-0.4c-4.9-0.7-9.9-1.2-14.6-2.6
					c-4.4-1.3-8.6-3.4-12.7-5.5c-10.1-5.1-16.9-13.5-22.2-23.2c-3.2-5.8-6.4-11.7-8.6-17.9c-3.6-10.1-7.2-20.3-6.7-31.2
					c0.3-8.1,1.3-16.1,1.7-24.2c0.2-3.6-0.4-7.2-0.6-10.8c-0.2-5.3-0.8-10.7-0.1-16c0.8-6.3,5.7-11.4,13.2-11.3
					c4.7,0.1,8.9,1.5,13,3.1c6.7,2.5,13.5,2.6,20.4,1.9c16.2-1.8,32.1-0.1,47.4,5.7c7.9,3,15.4,6.8,21.3,13.2
					c4.6,5,8.2,10.7,11.1,16.9c3.3,7.1,4.8,14.6,5.2,22.4c0.4,7.1,0.6,14.3,1,21.5c0.2,3.2,0.5,6.4,0.9,9.6c0.5,3.8,2.7,5.5,6.7,5.5
					c3.6,0,6-2,6.5-5.5c0.3-2.2,0.4-4.4,0.5-6.6c0.4-8.3,0.5-16.7,1-25c1-15.2,6.6-28.6,17.2-39.6c5.8-5.9,13-9.6,20.7-12.4
					c8.3-2.9,16.8-5.2,25.7-5.8c7.9-0.6,15.7-0.3,23.6,0.5c6.3,0.6,12.5,0,18.6-2.3c4-1.5,8-2.9,12.5-3c8,0,12.4,6.6,13.4,12.8
					c1,6.3-0.3,12.5-0.8,18.8c-0.3,3.5,0.2,7.1,0.4,10.6c0.2,2.4,0.7,4.7,0.8,7c0.3,5.9,0.8,11.9,0.4,17.7c-0.3,5-1.6,9.9-2.9,14.8
					c-3.4,13.6-9.6,25.9-17.3,37.6c-4.5,6.9-10.8,11.7-17.8,15.8c-7.6,4.5-16,6.2-24.7,7.3c-7.5,1-14.9,0.2-22.3-0.1
					c-5-0.2-9.4,1.3-13.1,4.4c-3.9,3.3-5,7.8-4.4,12.6c1.2,9.1,5.2,17.2,10.4,24.5c2.1,2.9,5.4,5,8.1,7.5
					C304.7,368.8,305.9,369.9,307.1,371.1L307.1,371.1L307.1,371.1z"/>
				<path class="st10" d="M96,270c-0.2-1.1-0.5-2.2-0.7-3.4c2.3,2,5.1,3.8,7,6.2c5.3,7,10,14.6,15.5,21.5c5,6.3,10.4,12.2,16.2,17.9
					c2.4,2.3,5.9,3.5,9,4.9c9.6,4.5,19.9,5.9,30.3,6.5c5.4,0.4,10.7,0.7,16,1.1c3.6,0.3,7,1.1,9.8,3.6c3.1,2.7,3.6,6.2,3.1,9.9
					c-1,7.3-3.6,13.9-9,19.1c-1.7,1.7-4.2,2.7-6.4,3.9c-0.3,0.2-0.8,0.1-1.1,0.1c0.2-0.3,0.4-0.7,0.8-0.9c6.3-5.1,9.8-11.7,9.7-19.9
					c-0.1-6-3.6-11.7-11-12c-8-0.3-16.1-1-24-2.5c-6.7-1.3-13.1-4.1-19.6-6.3c-6.8-2.3-11.4-7.4-16.4-12.2
					c-7-6.9-12.9-14.7-18.4-22.8c-0.3-0.5-0.8-0.9-1.2-1.3c-0.3,0.6-0.7,1.2-0.8,1.9c-0.2,1.4-0.2,2.8-0.4,4.2
					c0,0.3-0.4,0.5-0.6,0.8c-0.1-0.3-0.4-0.5-0.4-0.8c-0.2-2.6-0.8-5.2-0.6-7.8c0.3-3.6-2.1-5.8-3.8-8.4
					C98.3,272.2,97.1,271.2,96,270L96,270L96,270z"/>
				<path class="st10" d="M397.2,266.8c-0.8,1.2-1,3.8-1,3.8c-3.3,3.5-6.6,6.9-6.4,12.3c0.1,2.2-0.5,4.4-0.8,6.6
					c0,0.3-0.4,0.6-0.6,0.9c-0.2-0.3-0.5-0.6-0.6-1c-0.1-1.3,0-2.7-0.1-4c0-0.6-0.3-1.2-0.5-1.7c-0.4,0.4-0.9,0.7-1.3,1.2
					c-5.1,6.6-10,13.4-15.4,19.7c-3.7,4.3-7.9,8.5-12.6,11.8c-4.2,2.9-9.3,4.4-14.1,6.5c-7.8,3.4-16.2,4-24.5,4.6
					c-4.5,0.3-9.1,0.9-13.6,1.6c-4.8,0.7-8.5,5.1-8.7,10.7c-0.3,8.7,2.6,16,10.1,21.1c0.3,0.2,0.5,0.6,0.8,1
					c-0.4-0.1-0.8-0.1-1.1-0.2c-4-1.3-7.3-3.5-9.6-7.2c-3.8-5.8-6.1-11.9-6.1-18.8c0-4.3,2-7.5,6-9c2.7-1,5.6-1.6,8.5-1.9
					c9.8-1,19.7-1.2,29.4-2.8c7.8-1.2,15.4-3.9,22.1-8.1c4.1-2.6,7.7-6.4,10.7-10.2c6.5-8.1,12.4-16.7,18.6-25.1
					c2.4-3.2,4.7-6.3,7.3-9.3C394.5,268.3,395.9,267.6,397.2,266.8L397.2,266.8L397.2,266.8z"/>
				<path class="st13" d="M344,166.4c0,1.3,0,2.7,0,4c-0.1,3.6-2.5,5.5-5.8,4.3c-8.1-2.9-14-8.6-19.1-15.3c-0.8-0.9-0.5-1.9,0.5-2.4
					c1.5-0.8,3.1-1.6,4.8-1.9c4.2-0.8,8.4-1.5,12.6-1.9c3.7-0.3,6.8,1.1,6.7,5.6c0,2.5,0.4,5,0.5,7.5
					C344.1,166.3,344.1,166.3,344,166.4L344,166.4L344,166.4z"/>
				<path class="st13" d="M149.3,164.4c0-1.7,0-3.5,0-5.2c0.1-4.1,1.9-6.4,5.9-6c5.6,0.6,11.2,1.6,16.6,2.9c3.1,0.7,3.2,1.7,1.3,4.3
					c-4.5,6.1-9.9,11.1-17.1,13.9c-4.1,1.6-6.6-0.1-6.7-4.5C149.2,168.1,149.2,166.3,149.3,164.4L149.3,164.4L149.3,164.4z"/>
				<path class="st13" d="M178.4,175c-4.5-0.2-4.5-0.1-9-0.6c-2.9-0.3-3.7-2.1-1.6-4.1c2.7-2.6,5.9-4.9,9.1-6.9
					c2.2-1.4,4.7-2.2,7.1-3.1c2.9-1.1,5.7-0.8,7.9,1.4c2.3,2.2,4.4,4.7,6.3,7.3c1.4,1.9,1.1,3.6-1.1,4.4c-2.9,1-5.6,2.9-8.7,2.7
					C183.8,175.7,181.4,175.1,178.4,175L178.4,175L178.4,175z"/>
				<path class="st13" d="M309.7,175.7c-3.6-0.5-7.9-0.8-12.1-1.8c-3.8-0.9-4.3-2.6-2.1-5.8c1.8-2.5,4-4.8,6.2-7
					c1.8-1.7,4.1-1.8,6.5-1.1c6,1.8,11.3,4.7,16.1,8.7c0.2,0.2,0.5,0.4,0.7,0.7c0.6,1.1,1.1,2.3,1.7,3.5c-1.2,0.5-2.3,1.3-3.5,1.5
					C318.9,174.9,314.7,175.2,309.7,175.7L309.7,175.7L309.7,175.7z"/>
				<path class="st13" d="M137.7,174.9c-3.1-0.5-7.2-1.1-11.2-1.7c-1.4-0.2-2.8-0.3-4.2-0.6c-2.1-0.5-2.5-1.6-1.4-3.4
					c0.5-0.9,1.1-1.8,1.8-2.5c3.5-3.3,7-6.6,10.6-9.7c3.4-2.8,6.6-1.9,8.7,2c1.8,3.6,2.8,7.4,2.1,11.4
					C143.4,174.3,142.6,174.9,137.7,174.9L137.7,174.9L137.7,174.9z"/>
				<path class="st13" d="M354.5,175c-4.3,0.4-5.6-3-5.6-6.1c0.1-3.6,0.4-7.2,2.3-10.5c1.8-3,4.3-4,7.3-2.1
					c5.2,3.2,9.4,7.6,13.1,12.4c1.6,2.1,1,3.5-1.6,3.9C364.9,173.6,359.7,174.2,354.5,175L354.5,175z"/>
				<path class="st12" d="M374.9,307.1c-0.2,0.3-0.3,0.6-0.5,1L374.9,307.1z"/>
				<path class="st12" d="M117.5,307.1c-0.2-0.3-0.5-0.6-0.7-1C117,306.5,117.2,306.8,117.5,307.1z"/>
				<path class="st12" d="M375.4,306.6c-0.2,0.2-0.4,0.3-0.6,0.5C375.1,307,375.2,306.8,375.4,306.6z"/>
				<path class="st10" d="M300.9,376c-0.9,0.8-1.8,1.5-2.7,2.3c-4.3,0.5-7.3-2.1-10.4-4.4c-10-7.6-16-18-19.9-29.8
					c-2.3-6.9-3.7-14-4.6-21.2c-0.1-0.9-0.4-2-1-2.5c-4.7-4.2-9.5-8.3-14.2-12.5c-1-0.9-1.8-0.9-2.8,0c-4.8,4.2-9.6,8.4-14.4,12.6
					c-0.6,0.5-0.9,1.6-1,2.5c-1.6,14.2-5.4,27.7-13.5,39.6c-4.1,6.1-9.7,11-16.1,14.7c-1.4,0.8-3.3,0.6-5,0.9
					c-0.8-0.8-1.6-1.5-2.4-2.3c0.3-0.9,1.1-1,1.8-1.4c7.5-4.4,13.6-10,18.2-17.6c4.8-7.9,7.6-16.5,8.9-25.5
					c0.5-3.4,1.4-6.6,1.3-10.1c0-1.6,0.7-3.1,1.9-4.2c6.1-5.6,12.4-11,19.2-15.7c1.5-1.1,2.9-1.3,4.6-0.2c7,4.7,13.2,10.2,19.4,15.9
					c1.4,1.3,2,2.9,2.2,4.8c0.9,12.5,3.6,24.5,10.3,35.3c4.7,7.5,10.7,13.6,18.8,17.4C300,375,300.6,375.3,300.9,376L300.9,376
					L300.9,376z"/>
				<path class="st12" d="M255,327.5c2.6,0,3.8,1.1,3.8,3.5c0,2.2-1.7,3.6-4.1,3.6c-2.2,0-3.8-1.5-3.8-3.4
					C250.7,329.4,252.9,327.5,255,327.5L255,327.5z"/>
				<path class="st12" d="M238.1,327.5c2.2,0,3.9,1.5,3.9,3.5c0,1.9-1.7,3.5-3.6,3.5c-2.6,0-4.3-1.4-4.3-3.7
					C234.1,329,235.9,327.5,238.1,327.5L238.1,327.5L238.1,327.5z"/>
				<path class="st12" d="M254.9,351.2c-2.3,0-3.7-1.2-3.7-3.1c0-2.1,1.7-3.7,4.1-3.6c2.2,0.1,3.8,1.5,3.8,3.4
					C258.9,349.9,257.2,351.3,254.9,351.2L254.9,351.2L254.9,351.2z"/>
				<path class="st12" d="M238.2,351.2c-2.3,0-4-1.5-4-3.4c0-1.9,1.7-3.3,3.9-3.2c2.2,0,3.9,1.5,3.9,3.5
					C242.1,350,240.7,351.2,238.2,351.2L238.2,351.2L238.2,351.2z"/>
				<path class="st12" d="M238.2,359.3c2.1,0,4.2,1.9,4.2,3.6c0,1.5-1.8,3-3.6,2.9c-2.1-0.1-4.1-1.9-4.1-3.5
					C234.8,360.6,236.4,359.3,238.2,359.3z"/>
				<path class="st12" d="M254.5,365.9c-2,0-3.3-1.2-3.3-3.1c0-2,1.7-3.5,3.9-3.5c1.8,0,3.5,1.5,3.5,3.1
					C258.5,363.7,256.5,366.3,254.5,365.9L254.5,365.9L254.5,365.9z"/>
				<path class="st12" d="M239.2,382c-2.2,0-4.1-1.2-4.1-2.9c-0.1-1.4,1.6-2.7,3.5-2.7c1.8,0,3.9,1.6,3.9,3
					C242.5,380.9,241.1,382,239.2,382L239.2,382L239.2,382z"/>
				<path class="st12" d="M254.3,382c-1.6,0.2-3.3-0.6-3.3-2.3c0-1,1.6-2.3,2.8-3c1.5-0.8,3.7,0.1,4.3,1.4
					C259,380.1,257.3,382,254.3,382z"/>
				<path class="st12" d="M226.8,157.5c4.8,1.5,9.4,2.9,13.9,4.5c0.7,0.2,0.9,1.6,1.4,2.4c-0.9,0.3-1.9,0.9-2.6,0.7
					c-4-1.1-8-2.4-12-3.6c-0.6-0.2-1.2-0.5-1.6-0.9c-0.5-0.5-1.2-1.5-1-1.9C225.1,158.2,226.1,157.9,226.8,157.5L226.8,157.5
					L226.8,157.5z"/>
				<path class="st12" d="M252.5,165.4c-0.3-0.2-1.2-0.5-1.4-1c-0.2-0.4,0.2-1.3,0.6-1.7c0.6-0.6,1.4-1.1,2.2-1.3
					c3.7-1.2,7.4-2.3,11.1-3.4c1.2-0.3,2.9-0.9,3.4,0.7c0.2,0.6-1.2,2.2-2.2,2.5c-4.1,1.5-8.4,2.7-12.6,4
					C253.3,165.4,253.1,165.3,252.5,165.4L252.5,165.4L252.5,165.4z"/>
				<path class="st12" d="M255,195.7c1.2,0.1,2.6,0.2,2.8,2.2c0.1,1.6-1.9,3.5-3.8,3.5c-1.8,0-3.3-1.1-3.3-2.4
					C250.7,197.4,252.7,195.7,255,195.7L255,195.7z"/>
				<path class="st12" d="M254.6,182.4c1.2,0.1,2.7,0.3,2.7,2.4c0,1.6-2,3.5-4,3.1c-1.1-0.2-2.6-1.4-2.8-2.5
					C250.1,183.8,252.1,182.5,254.6,182.4L254.6,182.4L254.6,182.4z"/>
				<path class="st12" d="M239.1,201.4c-1.3,0-2.6-1.1-3.4-2.7c-0.3-0.6,0.3-2.1,0.9-2.5c1.8-1.3,5.3,0.2,5.9,2.3
					C242.9,199.9,241.5,201.3,239.1,201.4z"/>
				<path class="st12" d="M241.3,158.6c-2.5-1-5-1.9-7.4-3c-2.3-1-4.6-2.1-6.8-3.2c-0.4-0.2-0.6-0.8-0.9-1.2c0.5,0,1-0.2,1.4-0.1
					c4.4,1.8,8.7,3.6,13,5.4c0.5,0.2,0.9,0.6,1.3,1c0.2,0.2,0.3,0.5,0.4,0.8C242.1,158.4,241.7,158.5,241.3,158.6L241.3,158.6
					L241.3,158.6z"/>
				<path class="st12" d="M267.7,151.1c-1,0.8-1.4,1.3-2,1.6c-3.1,1.4-6.3,2.8-9.5,4.2c-1.3,0.6-2.6,1-4,1.5
					c-0.4,0.1-0.9,0.1-1.3,0.1c0.3-0.4,0.4-1.1,0.8-1.3c2.2-1.1,4.4-2.1,6.6-3.1c2.5-1.1,5-2,7.5-3
					C266.2,150.8,266.7,151,267.7,151.1L267.7,151.1L267.7,151.1z"/>
				<path class="st12" d="M238.5,182.5c2.1,0,4.1,1.4,3.8,3c-0.2,1-1.5,2.2-2.6,2.5c-1.7,0.5-4.4-1.9-4.1-3.4
					C235.9,183.1,237,182.4,238.5,182.5L238.5,182.5L238.5,182.5z"/>
				<path class="st12" d="M251.7,152.6c-0.2-0.1-0.7-0.2-0.7-0.3c0-0.4,0.1-0.8,0.4-1c0.5-0.4,1.1-0.8,1.8-1.1
					c3.8-1.6,7.7-3.2,11.5-4.8c0.5-0.2,1.3,0,1.9,0c-0.4,0.5-0.8,1.2-1.3,1.5c-4.3,1.9-8.6,3.7-13,5.5
					C252.1,152.5,252,152.5,251.7,152.6L251.7,152.6L251.7,152.6z"/>
				<path class="st12" d="M242.4,152.3c-0.5,0-1,0.1-1.4,0c-3.5-1.4-7-2.8-10.4-4.3c-1.1-0.5-2.3-1.1-3.3-1.7
					c-0.3-0.1-0.3-0.6-0.5-0.9c0.4-0.1,0.8-0.3,1.1-0.2c1.2,0.4,2.4,0.8,3.5,1.3c3.1,1.3,6.2,2.6,9.3,4c0.7,0.3,1.3,0.9,1.9,1.3
					C242.5,151.9,242.4,152.1,242.4,152.3L242.4,152.3L242.4,152.3z"/>
				<path class="st12" d="M238.1,173.6c1.4-0.1,2.5,1,3.5,1.6c0.5,0.3,0.9,1.4,0.8,1.7c-0.3,0.6-1.2,1.2-1.8,1.1
					c-1.2-0.2-2.4-0.7-3.4-1.4c-0.5-0.4-1.1-1.4-0.9-1.9C236.3,174.3,237.3,173.7,238.1,173.6z"/>
				<path class="st12" d="M252.4,178c-1.4-0.2-1.6-0.7-1.6-1.3c-0.1-1.3,2.4-2.8,4.4-2.8c1,0,2.2,0.4,1.6,1.3
					C255.7,176.6,254.7,178.3,252.4,178L252.4,178z"/>
				<path class="st11" d="M371.5,312.8c0.2-0.3,0.4-0.6,0.6-0.9C371.9,312.2,371.7,312.5,371.5,312.8z"/>
				<path class="st4" d="M300.9,376c-1.8-0.8-3.7-1.4-5.4-2.4c-10.9-6.7-17.5-16.6-21.5-28.4c-2.6-7.6-4.1-15.5-4.6-23.6
					c-0.1-1.3-0.9-3-1.9-3.8c-6.3-5.4-12.7-10.5-19.1-15.8c-1.3-1-2.4-0.9-3.6,0.1c-6.5,5.3-13,10.5-19.3,15.9c-1,0.8-1.6,2.6-1.7,4
					c-0.7,9.2-2.4,18.3-5.9,26.9c-4.5,11.1-11.7,20.1-22.2,26.1c-0.9,0.5-1.9,0.8-2.8,1.1c-0.6-0.6-1.3-1.3-1.9-1.9
					c1.7-1.2,3.5-2.4,5.2-3.6c0.4-0.3,0.7-0.7,1-1c7-5.6,11.4-13.2,14.9-21.3c2.3-5.3,3.9-10.8,3.9-16.7c0-7.9-4.4-14.4-11.7-17.3
					c-4.2-1.7-8.6-2.6-13.1-2.4c-5.8,0.2-11.7,0.5-17.5,0.5c-7.3,0-14.5-0.8-21.4-3c-7.4-2.4-13.5-7-19.1-12.3
					c-10.3-9.7-15.6-22.2-19.8-35.3c-1-3.1-1.7-6.4-2.7-9.6c-1.7-5.4-1.3-10.9-1-16.4c0.2-5.2,0.8-10.4,1.3-15.5
					c0.2-1.9,0-3.9,0.6-5.6c1.9-6.1-0.5-12-0.4-18c0-3.7-0.2-7.3,1.5-10.6c1.3-2.6,3.3-3.8,6.2-4c4.9-0.3,9.3,1.2,13.8,2.8
					c5.6,2,11.2,2.5,17.1,2.1c14.6-1,29.1-1.6,43.3,2.8c9.8,2.9,18.9,6.9,26.1,14.5c4.8,5.1,7.9,11.1,10.3,17.6
					c3.2,8.8,4.3,18,4.4,27.4c0.1,6.3,0.3,12.6,0.4,18.9c0.1,5.7,2.2,10.1,7.4,12.7c7.3,3.6,16.2-1.1,17.2-9.2
					c0.2-1.9,0.4-3.9,0.4-5.9c0.2-6.5,0.1-12.9,0.5-19.4c0.8-11.1,2.5-22,7.7-32.1c4.6-8.9,11.4-15.4,20.3-19.7
					c8.8-4.2,18.1-6.6,27.8-7.7c9.9-1.1,19.8-0.3,29.7,0.4c5.2,0.3,10.4-0.5,15.3-2.2c4.1-1.4,8.1-2.9,12.5-3c5.5-0.1,8.1,3,8.7,8
					c0.8,6.3,0.3,12.5-0.6,18.8c-0.3,1.9,0.6,4,0.8,6c0.6,6.1,1.2,12.2,1.8,18.3c0.2,2.5,0.2,5,0.5,7.5c0.6,6.6-1.6,12.6-3.3,18.7
					c-2.6,9.6-6.6,18.6-11.8,27c-5,8.2-12.2,14.1-20.2,19.2c-6.7,4.3-14.1,5.9-21.8,6.2c-9.2,0.4-18.4-0.2-27.6,0.1
					c-7.6,0.3-14.5,2.7-19.3,9.3c-2.9,4-3.4,8.4-3,13.1c0.9,9.6,5.3,17.9,10.1,26c3.4,5.7,8.8,9.8,14.3,13.6
					c0.2,0.2,0.6,0.1,0.9,0.2C302.1,374.7,301.5,375.3,300.9,376L300.9,376L300.9,376z"/>
				<path class="st3" d="M268.8,181.1c-0.1,0.1-0.2,0.2-0.3,0.3c0-0.2,0.1-0.3,0.1-0.5C268.6,181,268.7,181.1,268.8,181.1
					L268.8,181.1L268.8,181.1z"/>
				<path class="st12" d="M286.6,137.1c0.2-0.2,0.4-0.9,0.9-1.1c1.5-0.5,3-1,4.5-1.3c0.4-0.1,1.1,0.6,1.2,1c0.8,2.3,1.5,4.6,2.3,6.9
					c0.5,1.3,0.2,2.1-1.2,2.4c-0.5,0.1-1.1,0.3-1.6,0.4c-3.8,1-3.8,1-4.9-2.7C287.3,141.1,287.1,139.3,286.6,137.1L286.6,137.1
					L286.6,137.1z"/>
				<path class="st12" d="M301,142.6c-0.2-0.2-0.8-0.5-1-0.9c-0.8-2.3-1.4-4.6-2.2-6.9c-0.4-1.1,0.1-1.6,1.1-1.9
					c0.1,0,0.1,0,0.2-0.1c2.9-0.9,5,0,6.3,2.9c0.1,0.1,0.1,0.3,0.2,0.4C307.7,140.8,306.8,142.3,301,142.6L301,142.6L301,142.6z"/>
				<path class="st12" d="M386.7,153.9c-2.6,1.9-4.9,3.6-7.1,5.3c-1.3-1.3-2.6-2.5-3.8-3.8c-0.1-0.1,0.1-0.8,0.3-1
					c1.6-1.6,3.2-3.2,4.9-4.8c0.2-0.2,0.9-0.4,1-0.3C383.6,150.7,385,152.1,386.7,153.9L386.7,153.9L386.7,153.9z"/>
				<path class="st12" d="M370.6,142.6c1.2,0.7,2.6,1.4,4,2.3c0.2,0.1,0.2,0.9,0,1.2c-1,1.7-2.1,3.4-3.2,5c-0.2,0.3-0.9,0.7-1.1,0.6
					c-1.6-0.9-3.1-1.9-4.6-2.9c-0.1,0-0.1-0.1-0.1-0.2C365.3,147.6,369.2,142.5,370.6,142.6L370.6,142.6L370.6,142.6z"/>
				<path class="st12" d="M394.1,163.9c-0.5,0.5-0.7,0.9-1.1,1.1c-1.1,0.7-2.3,1.4-3.5,2c-0.8,0.4-2,1.2-2.3,0.9
					c-1.2-1.1-2.1-2.5-3.2-3.8c2.1-1.6,4.1-3.2,6.2-4.8C391.5,160.8,392.7,162.3,394.1,163.9L394.1,163.9L394.1,163.9z"/>
				<path class="st12" d="M358.9,136.3c1.8,1,3.4,1.8,4.9,2.8c0.2,0.1,0.2,1.1,0,1.5c-0.5,1.1-1.3,2-1.8,3c-0.8,1.6-1.8,1.8-3.4,0.9
					c-3.3-1.8-3.3-1.8-1.5-5.1c0.3-0.6,0.5-1.3,0.9-1.9C358.1,137,358.5,136.7,358.9,136.3z"/>
				<path class="st12" d="M206.9,137.5c-0.8,2.7-1.1,5.8-2.7,7.9c-1.5,2.1-3.9-0.3-5.9-0.6c-1.4-0.2-0.9-1.4-0.6-2.3
					c0.6-1.5,1.2-3.1,1.7-4.6c1-3.5,1-3.5,4.5-2.5C205.1,135.8,206.8,135.5,206.9,137.5L206.9,137.5L206.9,137.5z"/>
				<path class="st12" d="M190.3,131.7c0.6,0.1,0.6,0.1,0.7,0.1c5.3,1.6,5.6,0.5,3.5,6.4c-1.6,4.7-1.8,4.6-6.7,3.2
					c-1.5-0.4-1.9-0.9-1.3-2.4c0.9-2,1.6-4.1,2.5-6.1C189.4,132.4,190,132,190.3,131.7L190.3,131.7L190.3,131.7z"/>
				<path class="st12" d="M111.1,148.8c0.9,0.6,1.3,0.9,1.6,1.2c0.6,0.6,1.2,1.2,1.8,1.8c3.5,3.6,3.5,3.6-0.4,6.8
					c-0.4,0.3-1.5,0.3-1.9,0c-1.5-1.1-2.8-2.5-4.2-3.8c-0.2-0.2-0.6-0.6-0.5-0.7C108.7,152.3,109.9,150.6,111.1,148.8L111.1,148.8
					L111.1,148.8z"/>
				<path class="st12" d="M127.9,148.1c-0.9,0.8-1.4,1.3-2.1,1.8c-3.6,2.4-3.6,2.4-5.6-1.5c-0.6-1.1-1.7-2.8-1.4-3.2
					c0.8-1.1,2.4-1.7,3.7-2.4c0.4-0.2,1.1-0.3,1.3-0.1C125.2,144.4,126.4,146.2,127.9,148.1L127.9,148.1L127.9,148.1z"/>
				<path class="st12" d="M103.5,159.1c0.3,0.2,0.7,0.4,0.9,0.6c0.6,0.4,1.1,0.9,1.7,1.3c3.4,2.8,3.4,3.8,0.1,6.6
					c-0.3,0.3-1.1,0.3-1.6,0.1c-0.6-0.2-1.2-0.8-1.7-1.2c-1.1-0.8-3.3-2.1-3.2-2.4c0.7-1.7,2-3.1,3.1-4.6
					C103,159.4,103.2,159.3,103.5,159.1L103.5,159.1L103.5,159.1z"/>
				<path class="st12" d="M133.1,145.3c-0.4-0.3-0.8-0.4-1-0.7c-0.3-0.3-0.4-0.6-0.6-1c-2.9-4.4-2.4-5.7,2.7-7
					c0.4-0.1,1.2,0.3,1.4,0.6c0.5,0.7,0.7,1.6,1,2.4c0.4,1,1.2,2.6,0.9,2.9C136.3,143.7,134.7,144.4,133.1,145.3L133.1,145.3
					L133.1,145.3z"/>
				<path class="st3" d="M338.8,165.7c0,0.4,0,0.6,0,0.7c-0.2,1.1-0.4,2.2-0.7,3.4c-1-0.5-2.1-0.9-2.9-1.6c-2.9-2.3-5.7-4.7-8.5-7.1
					c-0.5-0.4-0.8-1.1-1.1-1.7c0.6-0.3,1.1-0.7,1.8-0.8c2.9-0.5,5.7-0.8,8.6-1.2c1.5-0.2,2.3,0.4,2.4,2.1
					C338.4,161.6,338.7,163.8,338.8,165.7L338.8,165.7L338.8,165.7z"/>
				<path class="st3" d="M154.3,164.6c0.2-1.9,0.3-3.8,0.7-5.6c0.1-0.6,1.1-1.5,1.6-1.5c3.4,0.3,6.9,0.8,10.3,1.4
					c0.2,0,0.6,1.3,0.4,1.5c-3.7,3.2-7.4,6.3-11.2,9.4c-0.1,0.1-1.1-0.4-1.2-0.7C154.6,167.5,154.5,166,154.3,164.6L154.3,164.6
					L154.3,164.6z"/>
				<path class="st3" d="M183.5,171c-2.1,0.1-4.7,0-7.1,0c-0.5,0-0.9-0.4-1.4-0.6c0.2-0.3,0.3-0.8,0.5-0.9c3.1-1.7,6.2-3.4,9.4-4.9
					c2.3-1.1,4.1,0.1,5.5,2c0.9,1.1,1.5,2.4,2.3,3.7c-1.3,0.3-2.6,0.8-4,0.9C187,171.2,185.4,171,183.5,171L183.5,171L183.5,171z"/>
				<path class="st3" d="M309.4,171c-2.4,0-4.7,0.1-7.1,0c-1.9-0.1-2.2-0.8-1.2-2.4c0.4-0.6,0.8-1.2,1.2-1.8c1.8-2.5,4-3.3,6.7-2
					c2.9,1.3,5.6,2.9,8.4,4.4c0.4,0.2,0.6,0.7,0.9,1c-0.4,0.3-0.9,0.8-1.3,0.8C314.5,171.1,311.9,171,309.4,171L309.4,171L309.4,171
					z"/>
				<path class="st3" d="M139.2,167.8c-0.3,1.6-0.6,2.4-2.4,2c-3-0.7-6-1.2-9-1.8c-1.3-0.2-1.4-0.8-0.5-1.7c2-1.9,3.9-3.9,5.9-5.8
					c1.1-1,2.4-1,3.1,0.4C137.4,163.1,138.2,165.5,139.2,167.8L139.2,167.8L139.2,167.8z"/>
				<path class="st3" d="M356.9,169.9c-2.5,0.8-2.8-0.8-2.4-2.4c0.5-2.3,1.3-4.5,2.2-6.7c0.5-1.2,1.7-1.5,2.8-0.5
					c2.1,1.9,4,3.9,6,5.9c1.3,1.2,0.4,1.7-0.8,2C362.1,168.8,359.5,169.3,356.9,169.9L356.9,169.9L356.9,169.9z"/>
				<path class="st12" d="M325.9,299.5c-8.2,0.4-16.2-0.4-24.2-2.2c-1.9-0.4-3.9-0.4-5.9-0.6c-5.3-0.7-9.8,1.7-14.5,3.6
					c-0.8,0.3-1.6,0.6-2.5,0.8c-5.4,1.4-8.9-2.1-7.7-7.5c0.3-1.1,0.5-2.3,1-3.4c3.3-7.1,3.3-14.3,1.4-21.9c-1.5-5.9-2.5-12-2.9-18.1
					c-0.5-7.8,1.4-15.3,4.6-22.5c6.4-14.3,18-22.6,32.6-27c7.4-2.2,15-2.9,22.7-1.9c4.4,0.6,8.7,1.3,13.1,1.4
					c6.3,0.2,12.3-1.4,18.1-4c1.3-0.6,2.5-1.3,3.8-1.9c3.1-1.3,5.1,0.1,5,3.5c-0.1,2.4-0.6,4.8-1,7.2c-0.9,5.2-0.4,10.3,1.4,15.3
					c1.5,4.2,2.6,8.5,2.6,13.1c0,3.8,0.5,7.5,0.8,11.3c0.5,7.8-2.1,14.9-4.5,22c-2.4,6.9-7,12.1-11.5,17.5
					c-6.3,7.6-15.1,10.8-24.1,13.5C331.6,298.9,328.7,299,325.9,299.5L325.9,299.5L325.9,299.5z"/>
				<path class="st12" d="M222.9,249.9c0,6.9-1.5,13.5-3.3,20c-2,7.2-1.1,14,1.7,20.7c0.4,0.9,0.7,1.8,0.9,2.7
					c1.5,5-2.4,9.3-7.5,7.9c-3.3-0.9-6.4-2.8-9.7-3.5c-3.2-0.7-6.6-1-9.8-0.7c-6.3,0.6-12.6,2.3-18.9,2.4c-8.9,0.2-18,0-26.2-4.5
					c-5-2.7-10.1-4.9-14.2-9.2c-8.1-8.6-13.4-18.7-15.8-30.1c-1-4.6-0.4-9.5-0.4-14.3c0-3.3,0-6.6,0.5-9.9c0.6-4,1.4-8.1,2.8-11.9
					c1.8-5,1.7-10,0.8-15.1c-0.4-2.2-0.7-4.5-1-6.8c-0.3-2.3,1.9-4.2,4.1-3.3c2.9,1.1,5.7,2.7,8.6,3.8c6.4,2.4,13,3.1,19.7,1.9
					c12.2-2.1,24.3-1.7,36,2.9c5.5,2.2,10.4,5.5,15.1,9.2c9.1,7.4,13.5,17.4,15.7,28.6C222.7,243.6,222.6,246.8,222.9,249.9
					L222.9,249.9L222.9,249.9z"/>
				<path class="st12" d="M258.2,289.6c0,2.1-1.5,3.7-3.7,3.7c-2.2,0-3.4-1.2-3.4-3.5s1.2-3.5,3.5-3.5
					C256.9,286.2,258.2,287.4,258.2,289.6L258.2,289.6L258.2,289.6z"/>
				<path class="st12" d="M238.8,293.3c-1.9,0-3.8-2-3.7-3.9c0.1-1.8,1.9-3.2,3.8-3.2c2.1,0.1,3.7,1.7,3.6,3.6
					C242.5,291.9,240.9,293.4,238.8,293.3L238.8,293.3L238.8,293.3z"/>
				<path class="st14" d="M323.1,292.1c-25.1-0.4-43.7-19.5-43.4-42.7c0.3-24.9,20.5-42.7,44.3-42.3c24.5,0.4,43.3,19.7,42.9,42.9
					C366.5,274.4,346.5,292.1,323.1,292.1L323.1,292.1z"/>
				<path class="st14" d="M170.4,292.1c-14.9-0.4-27.2-6.1-36-18.5c-13.3-18.6-9.3-45,10.4-58.6c13.7-9.4,28.5-10.8,43.6-4.1
					c15.1,6.7,24,18.6,25.3,35.2c1.5,18.1-6.7,31.6-22.1,40.6C185.1,290.4,177.9,292.3,170.4,292.1L170.4,292.1L170.4,292.1z"/>
				<path class="st15" d="M357.4,251.7c-0.7,3.8-1.1,8.3-2.3,12.6c-0.6,2-2.7,3.5-4.2,5.3c-0.5,0.5-1.2,0.9-1.5,1.4
					c-2,4.5-6,6.5-10,8.6c-0.6,0.3-1.3,0.6-1.8,1.1c-2.2,2-4.7,3-7.7,2.8c-3.7-0.2-7.5-0.1-11.3,0c-2.6,0.1-4.9-0.6-7.1-2.1
					c-1.8-1.2-3.8-2.2-5.9-2.9c-6.1-2-9.2-7-11.7-12.3c-2.4-5-4.1-10.3-3.4-16c0-0.1,0-0.2,0-0.2c-1.6-4-0.8-7.4,2-10.7
					c0.9-1.1,0.8-3.1,0.8-4.7c0-2.1,0.8-3.7,2.4-4.8c3.5-2.4,6.6-5.2,9.3-8.6c1.2-1.5,3.8-2,5.9-2.6c3.5-1.1,7.2-1.6,10.6-2.9
					c3-1.2,5.6-0.8,8.4,0.4c3,1.2,6,2.3,9,3.4c4.6,1.7,8.6,4.1,10.2,9.3c0.5,1.9,1.8,3.6,3,5.2C355.9,239,357.1,244.9,357.4,251.7
					L357.4,251.7L357.4,251.7z"/>
				<path class="st15" d="M174.3,283.4c-4,0.4-8,0.1-12-0.1c-1.5-0.1-3.1-0.6-4.4-1.3c-2.5-1.3-4.7-3.2-7.2-4.4
					c-2.5-1.1-4.1-2.9-5.6-5.1c-1.4-2-3.4-3.7-5-5.7c-1-1.3-1.8-2.8-2.2-4.3c-0.8-3.1-1.3-6.3-1.7-9.5c-0.2-1.8-0.1-3.6,0.1-5.4
					c0.6-5.6,2.1-10.7,6.2-14.9c0.9-0.9,1.4-2.3,1.7-3.6c1.4-5.4,5.4-8,10.3-9.8c3-1.1,6.1-2.1,9-3.5c3.2-1.5,6.1-1.4,9.3,0
					c2.9,1.2,6,1.9,9,2.4c3.6,0.6,6.4,2,8.7,5c1.8,2.4,4.5,4.1,6.9,5.9c2.1,1.5,3.1,3.3,2.9,5.8c-0.2,2.5,0.6,4.5,2.3,6.5
					c0.9,1,1.5,2.8,1.4,4.1c-0.2,4.2-0.4,8.6-1.4,12.6c-1.4,5.4-3.4,10.5-7.2,14.9c-2.7,3.1-5.9,4.7-9.6,6.2c-1.6,0.6-3,1.8-4.6,2.4
					C179.1,282.6,178.4,283,174.3,283.4L174.3,283.4L174.3,283.4z"/>
				<path class="st16" d="M324.5,274.6c-1.2,0.1-2.5-0.3-3.7-0.5c-2-0.4-3.9-1.1-5.9-1.1c-4.1-0.1-7.3-1.4-9.2-5.4
					c-0.6-1.4-1.9-2.6-3.1-3.4c-2.4-1.7-2.8-4-2.6-6.6c0.1-1.7,0.1-3.6-0.4-5.2c-1.2-4-0.6-7.4,2.4-10.5c0.6-0.6,1-1.9,0.9-2.8
					c-0.3-4.5,2.1-7.2,6.6-7.8c1.5-0.2,2.9-1.4,4.2-2.2c1.1-0.7,2-1.9,3.2-2.2c2.5-0.8,5.2-1,7.8-1.7c3-0.8,5.4,0.2,7.7,1.9
					c0.5,0.4,1.2,0.9,1.8,0.9c3.7,0.4,5.5,2.9,7,5.9c0.9,1.8,2.1,3.5,3.6,4.7c2.5,2,3.6,4.4,2.8,7.4c-0.5,1.9-0.2,3.4,0.7,5
					c1.6,2.7,1.9,5.2-0.3,7.9c-0.8,1-0.9,2.5-1.5,3.6c-0.8,1.6-1.5,3.6-2.8,4.7c-2.4,2.1-5.5,3.8-7.5,6c-0.6,0.7-3.8,0.9-5,0.9
					C328.6,273.8,327.3,274.4,324.5,274.6L324.5,274.6L324.5,274.6z"/>
				<path class="st16" d="M143.6,255c0.5-1.4,0.7-2.6,1.2-3.6c1.2-2.1,1.3-4.2,0.8-6.4c-0.6-2.7,0.4-4.7,2.5-6.1
					c2.1-1.4,3.5-3.1,4.3-5.4c1.2-3.1,3.3-5.1,6.7-5.6c0.8-0.1,1.7-0.6,2.3-1.1c2.8-2.6,6-2.3,9.3-1.3c0.1,0,0.1,0.1,0.2,0.1
					c4,1,8.1,1.4,11,5c0.5,0.6,1.9,0.6,2.9,0.7c3.2,0.3,5.6,2.8,5.6,5.9c-0.1,2.6,0.6,4.5,2.5,6.3c2.1,2,2.4,4.8,1.5,7.5
					c-0.8,2.4-1.3,4.8-0.7,7.4c0.6,2.5-0.9,4.3-2.8,5.9c-1.3,1.1-2.6,2.4-3.3,3.8c-1.6,3.4-4.4,4.7-7.8,4.8
					c-2.7,0.1-5.3,0.2-7.8,1.4c-1.2,0.5-2.7,0.2-4.1,0.2c-2.6-0.1-5.3-0.4-7.9-0.5c-2,0-3.3-0.9-4.6-2.4c-1.3-1.4-3-2.5-4.6-3.5
					c-2.3-1.4-3.6-3.3-3.9-6.1c-0.1-1.3-1.1-2.5-1.6-3.8C144.6,257.1,144.1,256.1,143.6,255L143.6,255L143.6,255z"/>
				<path class="st12" d="M340.8,250.8c-0.1,9.2-7.9,16.7-17.2,16.5c-9.5-0.2-16.9-7.1-16.9-16.3c0-9.7,7.8-16.8,17.2-16.8
					C333.5,234.2,341,241.8,340.8,250.8L340.8,250.8L340.8,250.8z"/>
				<path class="st12" d="M186.8,250.9c0.1,8.9-7.8,16.4-17,16.5c-9.3,0-17.2-7.5-17.1-16.7c0.1-9.4,7-16.3,16.9-16.4
					C179.2,234.2,186.5,241.7,186.8,250.9L186.8,250.9L186.8,250.9z"/>
				<path class="st11" d="M329.7,261.6c-0.3,0.2-0.5,0.4-0.8,0.5c-0.5,0.4-1,0.8-1.6,1c-1.5,0.7-3.3-0.9-4.6,0.8
					c-1.1-1.7-4.2-0.2-4.8-2.9c0-0.2-0.7-0.4-1-0.4c-2.3,0-2.9-0.6-1.9-2.7c0.5-1.1,0-0.9-0.7-1c-2.2-0.2-2.8-1.3-2-3.4
					c0.1-0.2-0.3-0.6-0.5-0.9c-0.3-0.5-0.9-1.3-0.8-1.4c1.7-1.3,0.4-3.2,0.9-4.7c0.1-0.3,0.2-0.8,0.4-0.8c1.9-0.1,1.7-1.2,1.7-2.7
					c0-1.3,1.1-1,1.9-0.6c0.6,0.3,1.1,0.9,1-0.5c0-1.9,0.7-2.2,2.5-1.3c0.3,0.1,1,0.1,1,0c0.8-2,2.3-2.5,4.1-1.4
					c0.3,0.2,0.9,0.2,1.2,0c1.2-0.8,2.9-0.4,3.3,1.1c0.2,0.9,0.2,1.3,1.3,0.8c1.4-0.7,3.5,0.6,3.8,2.2c0.1,0.3,0,0.9,0.2,1
					c2,1.4,2.4,3.7,2.7,5.8c0.1,0.9-1.2,1.9-1.8,2.8c1.6,0.6,1.1,1.4,0.8,2.9c-0.6,2.8-3.4,3.4-4.5,5.6c-0.2,0.4-0.9,0.4-1.3,0.6
					C329.8,261.9,329.7,261.7,329.7,261.6L329.7,261.6L329.7,261.6z"/>
				<path class="st11" d="M176.7,243.2c0.6-0.3,1.1-0.7,1.7-0.8c1.1-0.3,1.9,0.4,1.4,1.4c-0.6,1.3-0.7,1.8,0.9,1.9
					c0.4,0,1,1.1,1.1,1.7c0.2,1.3-1.1,2.7,0.5,3.8c-0.5,0.6-1.4,1.2-1.5,1.9c-0.1,0.6,1.2,1.6,1,2c-0.5,1-0.8,2.9-2.8,1.9
					c-0.2,0.4-0.4,0.8-0.4,1.2c0,0.6,0.4,1.4,0.2,1.7c-0.5,0.5-1.3,0.7-2,0.9c-0.2,0.1-0.9-0.1-0.9-0.1c-0.5,2.6-2.9,1.9-4.5,2.6
					c-0.2,0.1-0.5,0.1-0.6,0.3c-1.4,2-0.9-3.4-2.9-0.6c-1,1.4-2.5-0.7-3.5-0.8c-2.4-0.2-3.5-0.9-3.4-3.3l0,0
					c-1.7,0.2-2.7-0.4-2.9-2.2c0-0.4-0.3-0.9-0.6-1.2c-0.7-0.9-0.9-1.7,0.4-2.1c1.4-0.5,1-0.7,0-1.2c-1.2-0.6-1.7-3.8-0.7-4.4
					c1-0.6,1.3-0.8,0.6-1.7c-0.1-0.1,0-0.6,0.1-0.6c1.7-0.5,1.6-2.1,2.3-3.3c0.6-1.2,1.8-1.8,3.1-0.6c0.3,0.3,0.8,0.4,1.2,0.6
					c0-0.4-0.1-0.9,0-1.3c0.2-0.5,0.6-1.2,1.1-1.4c0.7-0.3,2.1-0.4,2.2-0.2c0.6,1.1,0.8,0.6,1.6,0.1c1.3-0.9,3.3-0.2,4,1.2
					c0.1,0.2,0.6,0.4,0.8,0.4C177.1,239.9,177.2,240,176.7,243.2L176.7,243.2L176.7,243.2L176.7,243.2z"/>
				<path class="st5" d="M331.7,251.2c0.4,4.3-4.3,7.8-7.3,7.7c-4.8-0.2-8.8-3.4-8.8-7c0-4.3,3.6-8.6,7.2-8.6
					C329.3,243.2,331.7,247,331.7,251.2L331.7,251.2L331.7,251.2z"/>
				<path class="st5" d="M169.1,243.5c5-0.2,8.3,2.7,8.6,7.5c0.2,3.3-3,7.6-5.7,7.6c-6.6,0.2-9.9-2-10.1-6.7
					C161.7,246.6,164.1,243.8,169.1,243.5L169.1,243.5z"/>
				<path class="st12" d="M176.7,243.2c0,0.1-0.1,0.1-0.1,0.1C176.6,243.2,176.7,243.2,176.7,243.2L176.7,243.2L176.7,243.2
					L176.7,243.2z"/>
				<path class="st12" d="M161.1,258.7c0,0,0.1-0.1,0.1-0.1C161.1,258.6,161.1,258.7,161.1,258.7L161.1,258.7z"/>
				<path class="st12" d="M323.9,244.5c3.8,0,6.8,2.9,6.8,6.7c0,3.5-3.2,6.5-6.8,6.6c-3.8,0-6.9-3-6.9-6.7S320,244.5,323.9,244.5
					L323.9,244.5L323.9,244.5z"/>
				<path class="st12" d="M176.5,251.1c0,3.7-3,6.7-6.8,6.7c-3.6,0-6.8-3-6.8-6.5c0-3.8,2.9-6.7,6.7-6.8
					C173.5,244.5,176.5,247.4,176.5,251.1L176.5,251.1L176.5,251.1z"/>
			</g>
		</g>
	</g>
</g>
<g id="Layer_3">
	<g>
		<defs>
			<polygon id="SVGID_3_" points="54.3,409.9 254.7,62.4 424.2,116 418.5,411.5 			"/>
		</defs>
		<clipPath id="SVGID_4_">
			<use xlink:href="#SVGID_3_"  style="overflow:visible;"/>
		</clipPath>
		<g class="st17">
			<g>
				<path class="st18" d="M193,294.1c0,0-32.8-24.5-32.8-28c-0.2-7.2,12.6-46,13.8-51.9l20.8-3.5l0.5,75L193,294.1z"/>
				<path class="st19" d="M189.4,302.5c0,0-10.6,2.9-17.5-8.4c-3.7-9.2-4-22.4,4.7-23.7s15.5,15.8,14.7,22.6
					C190.5,298.1,189.4,302.5,189.4,302.5z"/>
				<path class="st18" d="M314.3,291.5c0,0,34.2-22,34.2-24.7c0-8.9-8.5-37.3-14.2-53l-18.7-9.4l-5.4,82.5L314.3,291.5z"/>
				<path class="st19" d="M317.7,302.8c0,0,12.3,2.4,19.2-8.9c3.7-9.2,4-22.4-4.7-23.7c-8.7-1.3-16.5,17.8-15.5,22.8
					C317.6,298.1,317.7,302.8,317.7,302.8z"/>
				<path class="st19" d="M314.5,201c-0.8,6.9,0,84.2,0,84.2s26.5,40.1-32,59.2c0,0-8.1,2.7-27.9,2.7c-19.9,0-28.1-2.8-28.1-2.8
					c-58.5-19.1-32-59.2-32-59.2s0.8-77.3,0-84.2L314.5,201z"/>
				<path class="st20" d="M253.9,278.2c45.7,0,60.6,7,60.6,7s26.5,40.1-32,59.2c0,0-8.1,2.7-27.9,2.7c-19.9,0-28.1-2.8-28.1-2.8
					c-58.5-19.1-32-59.2-32-59.2S208.2,278.2,253.9,278.2z"/>
				<g>
					<ellipse class="st21" cx="219.6" cy="264.2" rx="19.6" ry="18.8"/>
					<g>
						<ellipse class="st22" cx="225.2" cy="264.2" rx="19.6" ry="18.8"/>
						<ellipse class="st23" cx="229" cy="267.3" rx="13.9" ry="15.1"/>
						<circle class="st24" cx="231.6" cy="268.5" r="3.9"/>
					</g>
				</g>
				<path class="st21" d="M200.2,302.5c0,0,3.1-4.7-1.6-4.7c-4.1,0-6.2,7.7-1,13.6c0.6,0.7,3.7,2.6,5.6,1.4c0.6-0.3-1.7-2.5-2.9-4.3
					C199.1,305,200.2,302.5,200.2,302.5z"/>
				<path class="st18" d="M244.9,244.9c0.4,0.7,0.6,21.1,0.1,21.7c-7.8-1.3-27.5-9.7-40.5-22.5c2.9-9.9,6-15.1,6.9-15.5
					C229.8,241.2,237.6,243.6,244.9,244.9z"/>
				<g>
					<ellipse class="st21" cx="288.9" cy="264.2" rx="19.6" ry="18.8"/>
					<g>
						<ellipse class="st22" cx="283.4" cy="264.2" rx="19.6" ry="18.8"/>
						<ellipse class="st23" cx="279.5" cy="267.3" rx="13.9" ry="15.1"/>
						<circle class="st24" cx="277" cy="268.5" r="3.9"/>
					</g>
				</g>
				<path class="st21" d="M307.9,302.6c0,0-3.1-4.7,1.6-4.7c4.1,0,6.2,7.7,1,13.6c-0.6,0.7-3.7,2.6-5.6,1.4
					c-0.6-0.3,1.7-2.5,2.9-4.3C308.9,305.2,307.9,302.6,307.9,302.6z"/>
				<path class="st18" d="M263.7,245.2c-0.4,0.7-0.6,21.1-0.1,21.7c7.8-1.3,29.3-11,42.3-23.8c-2.9-9.9-6-15.1-6.9-15.5
					C280.6,240.1,271,243.9,263.7,245.2z"/>
				<g>
					<path class="st25" d="M307.9,303.1c0.5,2.1,0.2,15.7-25.4,13c-5.9-0.6-15.1-2.6-28-2.6c-11.4,0-20.5,1.8-28,2.5
						c-26.7,2.5-26.9-10.7-26.2-13"/>
				</g>
				<path class="st26" d="M337,221.5c10.9,9.3,23.8,25.7,24.6,25.7s-0.6-9.4-2.1-16.8c-1.5-7.9-3.6-13.7-4.4-15.6
					c0.4-0.1,6.7,4.9,12.4,9.8c5.9,5.1,11.9,11.3,12.2,11.3c0.7,0-2.2-9.8-6.2-19.2c-3.7-8.5-8.7-16.6-8.6-16.7
					c0.2-0.4,8.9,3.1,17.2,8.3c8.3,5.2,15.9,12.4,16.8,12.5c0.9,0.1-2.7-13.4-8.7-21.3c-9.2-12.2-22.2-21-21.9-21.4
					c16.5,0.7,25.7,4.8,25.8,4.1c-18-23.6-39.1-27.6-39.1-28.3s7.5-3.4,15-4.1c6.4-0.6,27.1-2,27.1-2.4c0-0.8-21.6-11.6-43.5-12.8
					c-0.8-0.6,6.5-4,13.6-6.9c6.4-2.6,18-6.2,18.1-6.9c-11-7.5-35.6-5.4-35.9-5.9c-0.3-0.5,3.8-4,10.5-6.2
					c10.4-4.2,16.8-4.4,16.9-4.9c-0.9-1.9-42.4-6.1-59.4,3.9c1.5-5.1,2.9-9.9,11.8-23.7c4.5-7.1,17.3-20.6,16.6-21.5
					c-10.7-0.7-32.3,12-34,12.8c-0.3-0.2,0.2-2,0.9-3.5c1.1-2.4,3.3-5.4,2.9-5.3c-7.9,2.6-17.8,8.4-25.7,18.1c0.3-3.5,5.2-20,5-20.4
					c-0.2-0.4-6.9,6.2-12.6,15.7c-0.3-0.4,6.2-14.8,5.5-15.1s-14.1,15.9-14.6,15.8C271,56.7,270,48,269.3,47.9
					c-0.7-0.2-5.4,9.1-9.9,18.6c-3,6.3-6,16.6-6.5,16.6c-0.5,0.1-14.6-22.1-31.1-33.9c-0.6,0.3,9.9,25.9,9.7,38.3
					c-1.8-2.5-21.6-23.7-26.6-26.3c-0.5,1.2,5.6,15.2,5.8,23.5c-13.1-8-30.3-15.3-31-14.9c-0.8,0.4,6.3,9.5,10,16.3
					c3.3,6,7.2,16.9,7,17.2c-7.8-7.9-51.7-21.5-52.5-20.5s5.4,3.8,9.3,6.4c5.2,3.5,9.1,6.7,8.9,6.7c-0.3,0.1-6.9-3.1-10-4.4
					c-3-1.3-14.6-5.5-15-4.9c-0.4,0.5,26.2,24.1,27.6,26.4c-0.5,0.4-44.4-1.1-44.3-0.2c17,6.5,41.6,21.6,41.6,22.1
					c-3.6-0.2-20.2,1.8-35.6,6.9c-10.5,3.4-19.5,9.4-18.2,10.9c21.8,2,40.3,9.5,39.6,10.1c-3,0.2-7.8,3.5-9.8,6.4
					c-10.3,4.5-25.7,13.6-24.9,14c0.9,0.5,9.4,0.6,9.6,0.9c0.2,0.2-5,4.2-8.7,8.6c-3.9,4.6-7.3,9.6-7.1,9.9c0.2,0.2,8.9-3.7,18-6.9
					c9.4-3.2,19.2-5.6,19.4-5.4c0.3,0.4-10.2,12.6-15,21.1c-5.7,10.1-9.2,22.7-8.9,22.9c0.3,0.2,8.9-7.8,13.7-11
					c4.7-3.2,12.2-7.7,12.5-7.5c0.3,0.3-3.8,10-6.8,20.3c-2.3,8-4.4,17-4.2,17.1c0.5,0.2,17.3-19.3,17.9-19c0.6,0.2,0.4,11.1,1,11.6
					c0.3,0.2,6-9.8,8.1-12.9c2.2-3.1,10.1-15.6,12.5-16.7c0.9,0.4-0.3,5.2,1.1,5.2s6.2-6.5,7.1-6.5c0.4,0-0.8,8.3-0.6,17.8
					c0.2,12.9,1.5,28.1,2,28.1c6.3-13,11.1-24.8,11.7-24.8c1.5,7.5,4.8,19.3,5.7,19.3c0.4,0,4.3-15.5,7.5-23.2
					c3.7-8.9,12.2-22.3,12.5-22.3c0.3,0-1.1,12.2-0.8,24.4c0.3,13.2,2.3,25.7,3.1,25.7c0.6,0,3.2-8.4,5.5-13.2
					c3.4-7.1,9.7-18.9,10.3-18.9c1.6,1.1,2.1,4.2,2.7,4.2c0.3,0,2-3.9,4-7.7c2.7-5.2,5.9-10.9,6.7-10.9c1.3,0,9.4,9.2,14.6,17.9
					c4.9,8.2,12.5,29,13.8,29c0.5,0,3.2-7.6,4.4-16.5c1.5-11.2,1.1-24,1.6-24.1c0.2,0,4.2,4.9,7,11.2c3.7,8.3,6.4,18.3,6.9,18.3
					c0.8,0,2.1-10.7,2.5-10.7c0.2,0,1.9,3.9,3.2,8.9c1.1,4.5,1.6,11.4,2.1,11.4c0.6,0,4.8-13,6.1-27.6c1.1-12,0.3-25.3,1.1-25.3
					c0.6,0,17.5,9.6,17.5,9.6S336.5,221,337,221.5z"/>
				<path class="st23" d="M337.1,199.3c10.9,9.3,23.8,25.7,24.6,25.7c0.8,0-0.6-9.4-2.1-16.8c-1.5-7.9-3.6-13.7-4.4-15.6
					c0.4-0.1,6.7,4.9,12.4,9.8c5.9,5.1,11.9,11.3,12.2,11.3c0.7,0-2.2-9.8-6.2-19.2c-3.7-8.5-8.7-16.6-8.6-16.7
					c0.2-0.4,8.9,3.1,17.2,8.3c8.3,5.2,15.9,12.4,16.8,12.5c0.9,0.1-2.7-13.4-8.7-21.3c-9.2-12.2-22.2-21-21.9-21.4
					c16.5,0.7,25.7,4.8,25.8,4.1c-18-23.6-39.1-27.6-39.1-28.3s7.5-3.4,15-4.1c6.4-0.6,27.1-2,27.1-2.4c0-0.8-21.6-11.6-43.5-12.8
					c-0.8-0.6,6.5-4,13.6-6.9c6.4-2.6,18-6.2,18.1-6.9c-11-7.5-35.6-5.4-35.9-5.9c-0.3-0.5,3.8-4,10.5-6.2
					c10.4-4.2,16.8-4.4,16.9-4.9c-0.9-1.9-42.4-6.1-59.4,3.9c1.5-5.1,2.9-9.9,11.8-23.7c4.5-7.1,17.3-20.6,16.6-21.5
					c-10.7-0.7-32.3,12-34,12.8c-0.3-0.2,0.2-2,0.9-3.5c1.1-2.4,3.3-5.4,2.9-5.3c-7.9,2.6-17.8,8.4-25.7,18.1c0.3-3.5,5.2-20,5-20.4
					c-0.2-0.4-6.9,6.2-12.6,15.7c-0.3-0.4,6.2-14.8,5.5-15.1s-14.1,15.9-14.6,15.8c-2.1-24.1-3.2-32.7-3.8-32.8
					c-0.7-0.2-5.4,9.1-9.9,18.6c-3,6.3-6,16.6-6.5,16.6c-0.5,0.1-14.6-22.1-31.1-33.9c-0.6,0.3,9.9,25.9,9.7,38.3
					c-1.8-2.5-21.6-23.7-26.6-26.3c-0.5,1.2,5.6,15.2,5.8,23.5c-13.1-8-30.3-15.3-31-14.9c-0.8,0.4,6.3,9.5,10,16.3
					c3.3,6,7.2,16.9,7,17.2c-7.8-7.9-51.7-21.5-52.5-20.5c-0.8,1.1,5.4,3.8,9.3,6.4c5.2,3.5,9.1,6.7,8.9,6.7
					c-0.3,0.1-6.9-3.1-10-4.4c-3-1.3-14.6-5.5-15-4.9c-0.4,0.5,26.2,24.1,27.6,26.4c-0.5,0.4-44.4-1.1-44.3-0.2
					c17,6.5,41.6,21.6,41.6,22.1c-3.6-0.2-20.2,1.8-35.6,6.9c-10.5,3.4-19.5,9.4-18.2,10.9c21.8,2,40.3,9.5,39.6,10.1
					c-3,0.2-7.8,3.5-9.8,6.4c-10.3,4.5-25.7,13.6-24.9,14s9.4,0.6,9.6,0.9c0.2,0.2-5,4.2-8.7,8.6c-3.9,4.6-7.3,9.6-7.1,9.9
					c0.2,0.2,8.9-3.7,18-6.9c9.4-3.2,19.2-5.6,19.4-5.4c0.3,0.4-10.2,12.6-15,21.1c-5.7,10.1-9.2,22.7-8.9,22.9
					c0.3,0.2,8.9-7.8,13.7-11c4.7-3.2,12.2-7.7,12.5-7.5c0.3,0.3-3.8,10-6.8,20.3c-2.3,8-4.4,17-4.2,17.1c0.5,0.2,17.3-19.3,17.9-19
					c0.6,0.2,0.4,11.1,1,11.6c0.3,0.2,6-9.8,8.1-12.9c2.2-3.1,10.1-15.6,12.5-16.7c0.9,0.4-0.3,5.2,1.1,5.2c1.4,0,6.2-6.5,7.1-6.5
					c0.4,0-0.8,8.3-0.6,17.8c0.2,12.9,1.5,28.1,2,28.1c6.3-13,11.1-24.8,11.7-24.8c1.5,7.5,4.8,19.3,5.7,19.3
					c0.4,0,4.3-15.5,7.5-23.2c3.7-8.9,12.2-22.3,12.5-22.3c0.3,0-1.1,12.2-0.8,24.4c0.3,13.2,2.3,25.7,3.1,25.7
					c0.6,0,3.2-8.4,5.5-13.2c3.4-7.1,9.7-18.9,10.3-18.9c1.6,1.1,2.1,4.2,2.7,4.2c0.3,0,2-3.9,4-7.7c2.7-5.2,5.9-10.9,6.7-10.9
					c1.3,0,9.4,9.2,14.6,17.9c4.9,8.2,12.5,29,13.8,29c0.5,0,3.2-7.6,4.4-16.5c1.5-11.2,1.1-24,1.6-24.1c0.2,0,4.2,4.9,7,11.2
					c3.7,8.3,6.4,18.3,6.9,18.3c0.8,0,2.1-10.7,2.5-10.7c0.2,0,1.9,3.9,3.2,8.9c1.1,4.5,1.6,11.4,2.1,11.4c0.6,0,4.8-13,6.1-27.6
					c1.1-12,0.3-25.3,1.1-25.3c0.6,0,17.5,9.6,17.5,9.6S336.6,198.9,337.1,199.3z"/>
				<path class="st27" d="M207.6,159.8c-6.4,4.5-13.9,12.5-14.4,12.5s0.4-4.5,1.2-8.1c0.9-3.8,2.1-6.6,2.6-7.6
					c-0.2,0-3.9,2.4-7.3,4.8c-3.4,2.5-6.9,5.5-7.1,5.5c-0.4,0,1.3-4.7,3.7-9.3c2.1-4.1,5.1-8,5-8.1c-0.1-0.2-5.2,1.5-10.1,4
					c-4.8,2.5-9.3,6-9.8,6c-0.5,0,1.6-6.5,5.1-10.3c5.4-5.9,13-10.2,12.8-10.4c-9.6,0.4-15,2.3-15.1,2
					c10.5-11.4,22.9-13.4,22.8-13.7c0-0.3-4.4-1.7-8.8-2c-3.7-0.3-15.8-1-15.8-1.2c0-0.4,12.6-5.6,25.4-6.2c0.5-0.3-3.8-2-8-3.3
					c-3.8-1.2-10.5-3-10.6-3.3c6.4-3.6,20.8-2.6,21-2.8c0.2-0.3-2.2-1.9-6.2-3c-6.1-2-9.8-2.1-9.9-2.4c0.5-0.9,24.8-3,34.7,1.9
					c-0.9-2.4-1.7-4.8-6.9-11.5c-2.7-3.4-10.1-10-9.7-10.4c6.3-0.3,18.9,5.8,19.9,6.2c0.2-0.1-0.1-1-0.6-1.7
					c-0.6-1.1-1.9-2.6-1.7-2.6c4.6,1.3,10.4,4.1,15,8.8c-0.2-1.7-3-9.7-2.9-9.9c0.1-0.2,4.1,3,7.4,7.6c0.2-0.2-3.6-7.2-3.2-7.3
					c0.4-0.2,8.2,7.7,8.5,7.6c1.2-11.7,1.8-15.8,2.2-15.9c0.4-0.1,3.2,4.4,5.8,9c1.7,3,3.5,8,3.8,8.1c0.3,0,8.6-10.7,18.1-16.4
					c0.3,0.1-5.8,12.6-5.7,18.6c1.1-1.2,12.6-11.5,15.6-12.7c0.3,0.6-3.3,7.4-3.4,11.4c7.7-3.9,17.7-7.4,18.1-7.2
					c0.5,0.2-3.7,4.6-5.9,7.9c-1.9,2.9-4.2,8.2-4.1,8.3c4.6-3.8,30.2-10.4,30.7-9.9c0.5,0.5-3.2,1.8-5.4,3.1c-3,1.7-5.3,3.2-5.2,3.3
					c0.2,0.1,4.1-1.5,5.8-2.1s8.6-2.7,8.8-2.4c0.2,0.3-15.3,11.7-16.1,12.8c0.3,0.2,25.9-0.5,25.9-0.1c-9.9,3.1-24.3,10.5-24.3,10.7
					c2.1-0.1,11.8,0.9,20.8,3.3c6.1,1.7,11.4,4.5,10.6,5.3c-12.7,1-23.5,4.6-23.1,4.9c1.8,0.1,4.5,1.7,5.7,3.1
					c6,2.2,15,6.6,14.5,6.8s-5.5,0.3-5.6,0.4c-0.1,0.1,2.9,2,5.1,4.2c2.3,2.2,4.2,4.7,4.1,4.8c-0.1,0.1-5.2-1.8-10.5-3.3
					c-5.5-1.6-11.2-2.7-11.3-2.6c-0.2,0.2,6,6.1,8.8,10.2c3.3,4.9,5.4,11,5.2,11.1s-5.2-3.8-8-5.3c-2.8-1.5-7.1-3.7-7.3-3.6
					c-0.1,0.1,2.2,4.9,4,9.8c1.4,3.9,2.6,8.2,2.4,8.3c-0.3,0.1-10.1-9.3-10.5-9.2c-0.3,0.1-0.2,5.4-0.6,5.6
					c-0.2,0.1-3.5-4.8-4.8-6.3c-1.3-1.5-5.9-7.6-7.3-8.1c-0.6,0.2,0.2,2.5-0.6,2.5s-3.6-3.2-4.1-3.2c-0.2,0,0.5,4,0.4,8.6
					c-0.1,6.2-0.9,13.6-1.2,13.6c-3.7-6.3-6.5-12-6.8-12c-0.9,3.6-2.8,9.4-3.3,9.4c-0.2,0-2.5-7.5-4.4-11.2
					c-2.2-4.3-7.1-10.8-7.3-10.8c-0.2,0,0.6,5.9,0.5,11.8c-0.2,6.4-1.4,12.4-1.8,12.4c-0.4,0-1.9-4.1-3.2-6.4c-2-3.4-5.7-9.1-6-9.1
					c-0.9,0.5-1.2,2-1.6,2c-0.2,0-1.2-1.9-2.3-3.7c-1.6-2.5-3.4-5.3-3.9-5.3c-0.8,0-5.5,4.5-8.5,8.7c-2.9,4-7.3,14-8,14
					c-0.3,0-1.8-3.7-2.5-8c-0.9-5.4-0.7-11.6-1-11.7c-0.1,0-2.4,2.4-4.1,5.4c-2.2,4-3.7,8.9-4,8.9c-0.5,0-1.2-5.2-1.4-5.2
					c-0.1,0-1.1,1.9-1.8,4.3c-0.7,2.2-0.9,5.5-1.2,5.5c-0.3,0-2.8-6.3-3.6-13.4c-0.7-5.8-0.2-12.2-0.6-12.2
					c-0.4,0-10.2,4.6-10.2,4.6S207.9,159.6,207.6,159.8z"/>
			</g>
			<ellipse class="st19" cx="253.9" cy="289.1" rx="9.8" ry="5.3"/>
			<ellipse class="st20" cx="253.9" cy="286.8" rx="6.7" ry="3"/>
		</g>
	</g>
</g>
<g id="Layer_4">
</g>
</svg>
